# Blender v3.6.9 OBJ File: ''
# www.blender.org
mtllib sky.mtl
o Sphere
v -1447.214600 894.438110 1051.450562
v 552.776001 894.438171 1701.298462
v -1447.214600 894.437988 -1051.450562
v 552.776001 894.437927 -1701.298462
v 1788.852417 894.429688 0.000018
v -0.000003 2000.000488 0.000018
v 1902.115601 -0.000044 -618.025269
v 1902.115601 0.000048 618.025269
v 0.000078 -3918.581787 -0.000527
v -0.000003 0.000153 1999.999878
v 1175.571167 0.000124 1618.033447
v -1902.115601 0.000048 618.025269
v -1175.571167 0.000124 1618.033447
v -1175.571167 -0.000120 -1618.033447
v -1902.115601 -0.000044 -618.025269
v 1175.571167 -0.000120 -1618.033447
v -0.000003 -0.000149 -1999.999878
v 1376.378906 1051.473511 999.993835
v -525.737671 1051.473511 1618.023315
v -1701.295898 1051.473389 0.000018
v -525.737671 1051.477173 -1618.023315
v 1376.378906 1051.473267 -999.993896
v 324.911133 1701.310669 999.990479
v 1051.459595 1701.302490 0.000018
v -850.645386 1701.306396 618.022827
v -850.645386 1701.306396 -618.022827
v 324.911133 1701.310425 -999.990479
vt 0.593502 0.160820
vt 0.616668 -0.000000
vt 0.619226 0.193910
vt 0.593502 0.579731
vt 0.590162 0.377190
vt 0.619226 0.440138
vt 0.428976 0.361456
vt 0.406505 0.359969
vt 0.428347 0.156902
vt 0.479974 0.119646
vt 0.455324 0.227228
vt 0.458323 0.014770
vt 0.667904 0.174815
vt 0.693999 0.246765
vt 0.667432 0.383278
vt 0.697113 0.454434
vt 0.673201 0.528122
vt 0.718401 0.295872
vt 0.434079 0.000000
vt 0.645731 0.461358
vt 0.642949 0.267915
vt 0.616668 0.644639
vt 0.645731 0.062950
vt 0.645732 0.230772
vt 0.688719 0.009884
vt 0.718401 0.081039
vt 0.480130 0.331629
vt 0.450153 0.473762
vt 0.419981 0.555802
vt 0.250000 0.860249
vt 0.278039 0.857363
vt 0.274835 1.000000
vt 0.586022 0.708080
vt 0.569641 0.542786
vt 0.569641 0.296555
vt 0.348575 0.763854
vt 0.355763 0.956891
vt 0.333004 0.827050
vt 0.378465 0.857363
vt 0.658888 0.000000
vt 0.512204 0.652479
vt 0.546394 0.467283
vt 0.537197 0.649808
vt 0.480130 0.936419
vt 0.307929 0.763854
vt 0.250000 0.000000
vt 0.299888 0.940810
vt 0.328252 0.615441
vt 0.406505 -0.000000
vt 0.480130 0.752049
vt 0.480130 0.000000
vt 0.569641 0.267200
vt 0.406505 0.860249
vn 0.2764 0.4472 0.8507
vn 0.6882 0.5257 0.5000
vn 0.1625 0.8507 0.5000
vn -0.7236 0.4472 0.5257
vn -0.2629 0.5257 0.8090
vn -0.4253 0.8507 0.3090
vn -0.7236 0.4472 -0.5257
vn -0.8506 0.5257 -0.0000
vn -0.4253 0.8507 -0.3090
vn 0.2764 0.4472 -0.8507
vn -0.2629 0.5257 -0.8090
vn 0.1625 0.8507 -0.5000
vn 0.8944 0.4472 0.0000
vn 0.6882 0.5257 -0.5000
vn 0.5257 0.8507 -0.0000
vn 0.0000 1.0000 -0.0000
vn 0.9421 -0.1153 -0.3149
vn 0.5907 -0.1153 -0.7986
vn -0.0084 -0.1153 -0.9933
vn -0.5770 -0.1153 -0.8085
vn -0.9473 -0.1153 -0.2989
vn -0.9473 -0.1153 0.2989
vn -0.5770 -0.1153 0.8085
vn -0.0084 -0.1153 0.9933
vn 0.5907 -0.1153 0.7986
vn 0.9421 -0.1153 0.3149
vn -0.0000 -1.0000 0.0000
usemtl Material.001
s 1
f 2/1/1 18/2/2 23/3/3
f 1/4/4 19/5/5 25/6/6
f 3/7/7 20/8/8 26/9/9
f 4/10/10 21/11/11 27/12/12
f 5/13/13 22/14/14 24/15/15
f 24/15/15 27/16/12 6/17/16
f 24/15/15 22/14/14 27/16/12
f 22/14/14 4/18/10 27/16/12
f 27/12/12 26/9/9 6/19/16
f 27/12/12 21/11/11 26/9/9
f 21/11/11 3/7/7 26/9/9
f 26/20/9 25/6/6 6/21/16
f 26/20/9 20/22/8 25/6/6
f 20/22/8 1/4/4 25/6/6
f 25/6/6 23/3/3 6/21/16
f 25/6/6 19/5/5 23/3/3
f 19/5/5 2/1/1 23/3/3
f 23/3/3 24/23/15 6/21/16
f 23/3/3 18/2/2 24/23/15
f 18/24/2 5/13/13 24/15/15
f 7/25/17 22/14/14 5/13/13
f 7/25/17 16/26/18 22/14/14
f 16/26/18 4/18/10 22/14/14
f 17/27/19 21/11/11 4/10/10
f 17/27/19 14/28/20 21/11/11
f 14/28/20 3/7/7 21/11/11
f 15/29/21 20/8/8 3/7/7
f 15/30/21 12/31/22 20/32/8
f 12/33/22 1/4/4 20/22/8
f 13/34/23 19/5/5 1/4/4
f 13/34/23 10/35/24 19/5/5
f 10/35/24 2/1/1 19/5/5
f 11/36/25 18/37/2 2/38/1
f 11/36/25 8/39/26 18/37/2
f 8/40/26 5/13/13 18/24/2
f 16/41/18 17/42/19 4/43/10
f 15/29/21 14/28/20 9/44/27
f 14/28/20 15/29/21 3/7/7
f 13/45/23 12/31/22 9/46/27
f 12/31/22 13/45/23 1/47/4
f 11/36/25 10/48/24 9/49/27
f 10/48/24 11/36/25 2/38/1
f 16/41/18 7/50/17 9/51/27
f 12/31/22 15/30/21 9/46/27
f 8/40/26 7/25/17 5/13/13
f 17/42/19 16/41/18 9/51/27
f 14/52/20 17/42/19 9/51/27
f 7/53/17 8/39/26 9/49/27
f 10/48/24 13/45/23 9/46/27
f 8/39/26 11/36/25 9/49/27
