# Blender v3.6.5 OBJ File: ''
# www.blender.org
mtllib wood.mtl
o Cube_Cube.001
v -0.906268 -0.074508 0.080588
v -0.909973 0.022060 0.079324
v -0.913802 -0.057505 -0.070682
v -0.915158 0.007332 -0.071536
v 0.915277 -0.005517 0.071159
v 0.913921 0.059320 0.070305
v 0.910092 -0.020245 -0.079700
v 0.906387 0.076323 -0.080965
v -0.687790 -0.074873 -0.010249
v -0.690838 0.004545 -0.011289
v 0.691615 -0.019881 0.011137
v 0.687789 0.079831 0.009831
vt 0.660469 0.532524
vt 0.771258 0.458062
vt 0.692754 0.563011
vt 0.724940 0.065486
vt 0.106416 0.876119
vt 0.064667 0.841879
vt 0.778292 0.462345
vt 0.723714 0.586831
vt 0.696501 0.562907
vt 0.023849 0.807196
vt 0.724007 0.065929
vt 0.051461 0.830658
vt 0.289067 0.867490
vt 0.841400 0.164444
vt 0.800625 0.290186
vt 0.236469 0.822772
vt 0.841400 0.164444
vt 0.181523 0.941026
vt 0.220349 0.973089
vt 0.824988 0.314463
vt 0.337650 0.912436
vt 0.143571 0.908867
vt 0.694946 0.205071
vt 0.803492 0.132233
vt 0.833665 0.331409
vt 0.959269 0.266935
vt 0.873674 0.367667
vt 0.830094 0.332898
vt 0.779239 0.461290
vt 0.744499 0.433631
vt 0.744499 0.433631
vt 0.752552 0.088948
vt 0.820777 0.498446
vt 0.683477 0.030254
vt 0.181964 0.940506
vt 0.724341 0.225383
vt 0.879768 0.197046
vt 0.184959 0.783685
vt 0.917957 0.229496
vt 0.872335 0.366530
vn -0.2581 0.0027 0.9661
vn -0.0047 -0.0133 -0.9999
vn 0.2596 -0.0073 -0.9657
vn 0.0047 0.0133 0.9999
vn 0.0382 -0.9947 0.0958
vn -0.0170 0.9258 0.3777
vn -0.0513 0.9855 -0.1617
vn 0.0176 -0.9416 -0.3363
vn 0.3838 0.0268 0.9230
vn -0.3838 -0.0268 -0.9230
vn -0.2593 0.0073 0.9658
vn 0.2581 -0.0027 -0.9661
vn -0.0475 0.9531 -0.2990
vn -0.0363 0.9829 0.1806
usemtl None
s off
f 10/1/1 3/2/1 9/3/1
f 3/4/2 8/5/2 7/6/2
f 11/7/3 6/8/3 5/9/3
f 6/10/4 1/11/4 5/12/4
f 11/13/5 1/14/5 9/15/5
f 12/16/6 2/17/6 6/18/6
f 8/19/7 10/20/7 12/21/7
f 7/22/8 9/23/8 3/24/8
f 8/25/9 11/26/9 7/27/9
f 1/28/10 10/29/10 9/30/10
f 10/1/11 4/31/11 3/2/11
f 3/4/2 4/32/2 8/5/2
f 11/7/12 12/33/12 6/8/12
f 6/10/4 2/34/4 1/11/4
f 11/13/5 5/35/5 1/14/5
f 12/16/13 10/36/13 2/17/13
f 8/19/14 4/37/14 10/20/14
f 7/22/5 11/38/5 9/23/5
f 8/25/9 12/39/9 11/26/9
f 1/28/10 2/40/10 10/29/10
