# Blender v3.6.9 OBJ File: ''
# www.blender.org
mtllib crosshair.mtl
o Circle
v -0.391401 -0.961970 0.000000
v -0.954577 -0.409099 0.000000
v -0.792476 -0.336861 0.000000
v -0.322169 -0.798562 0.000000
v -0.961865 0.380066 -0.000000
v -0.408994 0.943243 -0.000000
v -0.336861 0.792476 -0.000000
v -0.798562 0.322169 -0.000000
v 0.943347 0.397659 -0.000000
v 0.950635 -0.391505 0.000000
v 0.798562 -0.322169 0.000000
v 0.792476 0.336861 -0.000000
v 0.397764 -0.954682 0.000000
v 0.336861 -0.792476 0.000000
v 0.380170 0.950530 -0.000000
v 0.322169 0.798562 -0.000000
v -0.508774 0.610068 -0.000000
v -0.631044 0.485518 -0.000000
v 0.508774 -0.610068 0.000000
v 0.631044 -0.485518 0.000000
v 0.610068 0.508774 -0.000000
v 0.485518 0.631044 -0.000000
v -0.610068 -0.508774 0.000000
v -0.485518 -0.631044 0.000000
v -0.050258 0.109034 -0.000000
v -0.111604 0.046544 -0.000000
v -0.109034 -0.050258 0.000000
v -0.046544 -0.111604 0.000000
v 0.050258 -0.109034 0.000000
v 0.111604 -0.046544 0.000000
v 0.109034 0.050258 -0.000000
v 0.046544 0.111604 -0.000000
vt 0.000000 0.000000
vt 0.000000 0.000000
vt 0.000000 0.000000
vt 0.000000 0.000000
vt 0.000000 0.000000
vt 0.000000 0.000000
vt 0.000000 0.000000
vt 0.000000 0.000000
vt 0.000000 0.000000
vt 0.000000 0.000000
vt 0.000000 0.000000
vt 0.000000 0.000000
vt 0.000000 0.000000
vt 0.000000 0.000000
vt 0.000000 0.000000
vt 0.000000 0.000000
vt 0.000000 0.000000
vt 0.000000 0.000000
vt 0.000000 0.000000
vt 0.000000 0.000000
vt 0.000000 0.000000
vt 0.000000 0.000000
vt 0.000000 0.000000
vt 0.000000 0.000000
vt 0.000000 0.000000
vt 0.000000 0.000000
vt 0.000000 0.000000
vt 0.000000 0.000000
vt 0.000000 0.000000
vt 0.000000 0.000000
vt 0.000000 0.000000
vt 0.000000 0.000000
vn -0.0000 -0.0000 -1.0000
usemtl Material.001
s 1
f 1/1/1 2/2/1 3/3/1 4/4/1
f 5/5/1 6/6/1 7/7/1 8/8/1
f 15/9/1 9/10/1 12/11/1 16/12/1
f 10/13/1 13/14/1 14/15/1 11/16/1
f 8/8/1 7/7/1 17/17/1 18/18/1
f 11/16/1 14/15/1 19/19/1 20/20/1
f 16/12/1 12/11/1 21/21/1 22/22/1
f 4/4/1 3/3/1 23/23/1 24/24/1
f 18/18/1 17/17/1 25/25/1 26/26/1
f 24/24/1 23/23/1 27/27/1 28/28/1
f 20/20/1 19/19/1 29/29/1 30/30/1
f 22/22/1 21/21/1 31/31/1 32/32/1
