mtllib lvl1.mtl
# vertices
v -4864 -751.7047804232925 10623.812558998921
v -4864 0 9984
v -4864 0 -3968
v -4864 -272 -3968
v -4864 -751.7256188487938 10618.560095436476
v 8448 16 -9600
v 8960 -640 -9600
v -4862.74981401262 -751.6874535022453 10623.804658438901
v -768 16 9984
v 5504 16 4096
v 1536 16 9600
v 2688 16 8960
v 3456 16 8192
v 4096 16 7296
v 4864 16 6016
v 6016 -624 4736
v -2927.148988782881 -727.7893623597859 9873.470233153377
v -4471.912697812912 -746.7015229434177 10512.731981811774
v -4744.576057348737 -750.1065211238474 10608.71739553713
v -4803.031728444853 -750.8709579342174 10620.612873801052
v 8192.005213966971 -623.981751118872 -2944.138170103861
v 5376 -624 6656
v 4608 -624 7936
v 3968 -624 8832
v 3200 -624 9600
v 2048 -624 10240
v -4864 -256 9984
v -4864 0 9984
v -4864 0 -3968
v -4864 -272 -3968
v -768 16 9984
v 4352 16 -3968
v -768 -240 9984
v 5504 16 640
v 4992 16 -2176
v 1536 16 9600
v 2688 16 8960
v 3456 16 8192
v 4096 16 7296
v 4864 16 6016
v 5504 16 4096
v 5632 16 2432
v 4352 -256 -3968
v 4096 -240 7296
v 3456 -240 8192
v 2688 -240 8960
v 4864 -240 6016
v 1536 -240 9600
v 5504 -240 4096
v 5632 -240 2432
v 5504 -240 640
v 4992 -240 -2176
v -8320 -573.5000000001965 15360
v -8321.499988555994 -29.502929654069874 15360
v -8321.499988556005 -29.50292965407433 -11392
v -8320 -573.5000000001024 -11392
v 18814.5000114457 21.497070346021133 -11392
v 18814.5000114457 21.497070346024586 15360
v 18816 -522.5000000000354 15360
v 18816 -522.4999999999433 -11392
v -11104.055555460627 -433.42666022433775 18047.979612675044
v -11104.055555460614 -437.21870915395994 -8896.020387324917
v -11104 -469.2186544342398 -8896
v -11104 -465.42660550468037 18048
v 21888 -462.32976554536555 -11072
v 21887.944444539356 -430.32982026492664 -11072.020387324917
v 21887.94444453936 -426.53777133530434 15871.979612675046
v 21888 -458.53771661580674 15872

# texture coordinates
vt -20.749634 -1.4681734
vt -19.5 -0
vt 7.75 -0
vt 7.75 -0.53125
vt -20.739376 -1.4682142
vt 16.5 0.03125
vt -9.5 -0.53125
vt -9.5 -0
vt 17.5 -1.25
vt -8.999805 -19.94641
vt -8.999805 8.542966
vt 18.000195 19.542967
vt -10.140476 -1.4681395
vt -10.142918 -0
vt -10.142918 -1.4681734
vt -9.5 7.75
vt -9.5 -19.5
vt -1.5 -19.5
vt -2.1429176 0.03125
vt 16.5 18.75
vt 10.25 -8
vt 16 18.75
vt -2 -19.5
vt 2.5 -18.75
vt 4.75 -17.5
vt 6.25 -16
vt 7.5 -14.25
vt 9 -11.75
vt -9.997559 -20.749619
vt -10 -20.749634
vt -10 -20.739376
vt 17 18.75
vt 11.25 -9.25
vt -6.2170877 -19.284122
vt -9.234204 -20.53268
vt -9.76675 -20.720152
vt -9.880921 -20.743385
vt 15.50001 5.75027
vt 10 -13
vt 9 -15.5
vt -8.734204 -20.53268
vt -5.7170877 -19.284122
vt 10.5 -13
vt 7.75 -17.25
vt 7.25 -17.25
vt 6.25 -18.75
vt -9.26675 -20.720152
vt 5.75 -18.75
vt 4 -20
vt -9.380921 -20.743385
vt -2 -0.39780426
vt -9.997559 -1.8971938
vt 3.5 -1.6478043
vt -9.880921 -1.8955991
vt 2.5 -18.190598
vt -2 -18.940598
vt 3.5 -19.440598
vt 4.75 -16.784788
vt 2.5 -18.034788
vt 3.5 -19.284788
vt 5.75 -18.034788
vt 6 -15.59375
vt 4.5 -17.09375
vt 5.5 -18.34375
vt 7 -16.84375
vt 16.398504 18.150978
vt 10.648504 -8.599021
vt 15.898514 5.151249
vt 7.4290543 -13.345439
vt 6.1790543 -15.095439
vt 7.1790543 -16.34544
vt 8.429054 -14.595439
vt 8.625 -10.906249
vt 7.125 -13.406249
vt 8.125 -14.656249
vt 9.625 -12.156249
vt 10.499996 -7.218749
vt 9.249996 -10.968749
vt 10.249996 -12.218749
vt 11.499996 -8.468749
vt 10.14706 -7.862711
vt 11.14706 -9.112711
vt 15.39707 5.887559
vt 19.75 -0.46875
vt 6.750269 -1.7187144
vt 19.75 -1.75
vt -19.5 -0.5
vt 8.5 7.75
vt -1.5 0.03125
vt -9.5 -0.5
vt -1.5 -0.46875
vt 10.25 -1.25
vt 9.25 4.25
vt 8 7.75
vt 10.5 -4.75
vt 8.5 -0.5
vt 8.5 0.03125
vt 8 -14.25
vt 6.75 -16
vt 5.25 -17.5
vt 9.5 -11.75
vt 3 -18.75
vt 2.5 -0.46875
vt -2 -0.46875
vt -2 -0.96875
vt 2.5 -0.96875
vt 4.75 -0.46875
vt 4.75 -0.96875
vt -16 -0.46875
vt -17.5 -0.46875
vt -17.5 -0.96875
vt -16 -0.96875
vt -14.25 -0.46875
vt -14.25 -0.96875
vt -11.75 -0.46875
vt -11.75 -0.96875
vt 4.25 -0.96875
vt 7.75 -1
vt 7.75 -0.46875
vt 4.25 -0.46875
vt -8 -0.46875
vt -8 -0.96875
vt -1.25 -0.96875
vt -1.25 -0.46875
vt -4.75 -0.46875
vt -4.75 -0.96875
vt -19.770124 -1.2571716
vt -19.770124 -0.35050985
vt 13.669875 -0.35050985
vt 13.669875 -1.2571716
vt 24.246126 18.890667
vt -9.673875 18.890667
vt -9.673875 -25.696
vt 24.246126 -25.696
vt 24.246126 -0.2755355
vt -9.673875 -0.36053547
vt -9.672 -1.2671973
vt 24.248001 -1.1821972
vt 24.248001 -1.1821957
vt -9.672 -1.2671956
vt -9.673875 -0.36053386
vt 24.246126 -0.27553385
vt 24.248001 -25.696
vt -9.672 -25.696
vt -9.672 18.890667
vt 24.248001 18.890667
vt 13.669875 -1.1721716
vt 13.669875 -0.26550984
vt -19.770124 -0.26550984
vt -19.770124 -1.1721716
vt -58.74993 -1.8483939
vt 28.958399 -1.8607378
vt 28.958332 -1.9649043
vt -58.749996 -1.9525604
vt 71.25 -1.9424797
vt -36.145832 -1.9649045
vt -36.14601 -1.860738
vt 71.24982 -1.8383132
vt 71.24982 36.041733
vt -36.14601 28.958399
vt -36.14601 -58.74993
vt 71.24982 -51.6666
vt 71.25 -51.666664
vt -36.145832 -58.749996
vt -36.145832 28.958332
vt 71.25 36.041664
vt 71.24982 -1.8259695
vt -36.14601 -1.8483943
vt -36.145832 -1.9525608
vt 71.25 -1.930136
vt -51.666664 -1.9301357
vt 36.041664 -1.9424796
vt 36.041733 -1.8383131
vt -51.6666 -1.8259692

# normals
vn -1 0 -0
vn -0.389639990836698 0 -0.9209672510685589
vn -0.36795049481795833 -0.2871808740042602 -0.8843865551722102
vn -0.03996568270140696 -0.9986611063537547 -0.03284416024965699
vn -0.00417071459093713 0.6481504799487127 0.761500860460482
vn -0.0039062201980186685 0.9999923706927791 -0
vn -0.0025318578923986114 0.6481556204540445 0.7615036975415452
vn -0.0015007041505784283 0.9999986245736726 -0.0007062137179192603
vn 0 1 -0
vn 0.01388309908356356 -0.9998957560057303 0.003966948646633097
vn 0.014342668417266953 -0.9998888906114926 0.00406131682967479
vn 0.014352424211571199 -0.9998855534061281 0.004784141403857066
vn 0.01628370807036721 -0.9998196755205468 0.009770224842220326
vn 0.016945477110934606 -0.9997831495451414 0.012103912222096147
vn 0.0172047565664407 -0.999762090158205 0.013407439501500343
vn 0.018175810642192168 -0.9996695853205689 0.018175810642192168
vn 0.020494437646853002 -0.9991232816613407 0.03650542518328954
vn 0.020557688209079678 -0.9991036469612714 0.037003838776343424
vn 0.03822216146803353 0.5115408747926133 0.8584084108331649
vn 0.04351610374161129 0.3985158974423557 0.9161284998300528
vn 0.10960590800535361 0.7453201744364045 0.6576354480321217
vn 0.30151134457776363 0.7839294959021854 0.5427204202399745
vn 0.43685202833051895 0.786333650994934 0.43685202833051895
vn 0.4759009066072528 0.8735294855158431 0.10229645656043752
vn 0.5127689144712199 0.7764786419135614 0.3662635103365856
vn 0.5488212999484517 0.7683498199278324 0.329292779969071
vn 0.646095738380922 0.7322418368317116 0.21536524612697402
vn 0.6660920256471402 0.7215984659634322 0.1887248454457201
vn 0.7851787132462041 0.6128224103385008 0.08912396788712465
vn -0.0017361081423821246 0.9999982900121038 -0.0006371039054613301
vn 0 0 1
vn 0 0 -1
vn 0.0017361073531313167 -0.9999978354036384 0.001146786508490411
vn 0.002227027046397075 -0.9999964381546647 0.0014710637370696277
vn 0.002272718408414454 -0.9999960997023599 0.0016233702917246102
vn 0.0024509656685030596 -0.9999939927492484 0.0024509656685030596
vn 0.0024606197904273926 -0.9999958828296924 0.0014763718742564357
vn 0.002802643911597567 -0.9999833476580119 0.005044759040875621
vn 0.003905147780763934 -0.9997178318755671 0.023430886684583603
vn 0.004166626479490876 -0.9999903550778102 0.0013888754931636253
vn 0.00902740773826611 -0.9999590110079383 0.0006944159798666238
vn 0.01944075090263454 -0.999810046421205 -0.0013886250644738957
vn 0.05085784274273196 -0.998663093857282 -0.009246880498678538
vn 0.1643989873053573 0 0.9863939238321437
vn 0.48564293117863205 0 0.8741572761215377
vn 0.7071067811865476 0 0.7071067811865476
vn 0.813733471206735 0 0.5812381937190965
vn 0.8574929257125441 0 0.5144957554275265
vn 0.9417419115948374 -0 -0.3363363969981562
vn 0.9486832980505138 0 0.31622776601683794
vn 0.9838699100999074 0 -0.17888543819998318
vn 0.9970544855015815 0 0.07669649888473704
vn 0.9974586998307351 0 -0.07124704998790965
vn -0.9999961985411164 -0.0027573362718561847 4.764226823548767e-16
vn -0.0018794188505499368 0.9999982338908325 -1.6709944548621133e-16
vn 0.001879418850552538 -0.9999982338908325 -3.5314591542944647e-15
vn 0.999996198541125 0.0027573362687440366 9.741417848259368e-18
vn -0.9999984929627489 -0.00173610834088317 2.443366895422727e-07
vn -0.06581221837191065 -0.000749980910155278 -0.9978317440538772
vn -0.00021808725989673692 0.999999966315359 -0.00014073815327685871
vn 0.00021808725989178008 -0.999999966315359 0.00014073815327440695
vn 0.0658122183719104 0.0007499809113308862 0.9978317440538763
vn 0.9999984929627476 0.0017361083416703928 -2.4433669012137785e-07

o entity0_brush0
usemtl brushes/Ground/coast_sand
f  1/1/1  2/2/1  3/3/1  4/4/1  5/5/1
usemtl brushes/Ground/coast_sand
f  6/6/2  4/7/2  3/8/2
usemtl brushes/Ground/coast_sand
f  7/9/3  4/7/3  6/6/3
usemtl brushes/Ground/coast_sand
f  5/10/4  4/11/4  7/12/4
usemtl brushes/Ground/coast_sand
f  8/13/5  2/14/5  1/15/5
usemtl brushes/Ground/coast_sand
f  3/16/6  2/17/6  9/18/6
usemtl brushes/Ground/coast_sand
f  9/19/7  2/14/7  8/13/7
usemtl brushes/Ground/coast_sand
f  6/20/8  3/16/8  9/18/8
usemtl brushes/Ground/coast_sand
f  10/21/9  6/22/9  9/23/9  11/24/9  12/25/9  13/26/9  14/27/9  15/28/9
usemtl brushes/Ground/coast_sand
f  8/29/10  1/30/10  5/31/10  7/32/10  16/33/10  17/34/10  18/35/10  19/36/10  20/37/10
usemtl brushes/Ground/coast_sand
f  21/38/11  16/33/11  7/32/11
usemtl brushes/Ground/coast_sand
f  22/39/12  17/34/12  16/33/12
usemtl brushes/Ground/coast_sand
f  23/40/13  18/41/13  17/42/13  22/43/13
usemtl brushes/Ground/coast_sand
f  24/44/14  18/41/14  23/40/14
usemtl brushes/Ground/coast_sand
f  19/36/15  18/35/15  24/45/15
usemtl brushes/Ground/coast_sand
f  25/46/16  19/47/16  24/44/16
usemtl brushes/Ground/coast_sand
f  20/37/17  19/36/17  25/48/17
usemtl brushes/Ground/coast_sand
f  26/49/18  20/50/18  25/46/18
usemtl brushes/Ground/coast_sand
f  9/51/19  8/52/19  26/53/19
usemtl brushes/Ground/coast_sand
f  26/53/20  8/52/20  20/54/20
usemtl brushes/Ground/coast_sand
f  11/55/21  9/56/21  26/57/21
usemtl brushes/Ground/coast_sand
f  12/58/22  11/59/22  26/60/22  25/61/22
usemtl brushes/Ground/coast_sand
f  13/62/23  12/63/23  25/64/23  24/65/23
usemtl brushes/Ground/coast_sand
f  6/66/24  10/67/24  21/68/24
usemtl brushes/Ground/coast_sand
f  14/69/25  13/70/25  24/71/25  23/72/25
usemtl brushes/Ground/coast_sand
f  15/73/26  14/74/26  23/75/26  22/76/26
usemtl brushes/Ground/coast_sand
f  10/77/27  15/78/27  22/79/27  16/80/27
usemtl brushes/Ground/coast_sand
f  10/81/28  16/82/28  21/83/28
usemtl brushes/Ground/coast_sand
f  6/84/29  21/85/29  7/86/29

o entity0_brush1
usemtl brushes/Ground/coast_sand
f  27/87/1  28/2/1  29/3/1  30/4/1
usemtl brushes/Ground/coast_sand
f  31/18/6  29/16/6  28/17/6
usemtl brushes/Ground/coast_sand
f  29/16/30  31/18/30  32/88/30
usemtl brushes/Ground/coast_sand
f  31/89/31  28/8/31  27/90/31  33/91/31
usemtl brushes/Ground/coast_sand
f  34/92/9  35/93/9  32/94/9  31/23/9  36/24/9  37/25/9  38/26/9  39/27/9  40/28/9  41/21/9  42/95/9
usemtl brushes/Ground/coast_sand
f  43/96/32  30/7/32  29/8/32  32/97/32
usemtl brushes/Ground/coast_sand
f  27/17/33  30/16/33  43/88/33
usemtl brushes/Ground/coast_sand
f  44/98/34  27/17/34  43/88/34
usemtl brushes/Ground/coast_sand
f  45/99/35  27/17/35  44/98/35
usemtl brushes/Ground/coast_sand
f  46/100/36  27/17/36  45/99/36
usemtl brushes/Ground/coast_sand
f  44/98/37  43/88/37  47/101/37
usemtl brushes/Ground/coast_sand
f  48/102/38  27/17/38  46/100/38
usemtl brushes/Ground/coast_sand
f  33/18/39  27/17/39  48/102/39
usemtl brushes/Ground/coast_sand
f  47/28/40  43/94/40  49/21/40
usemtl brushes/Ground/coast_sand
f  49/21/41  43/94/41  50/95/41
usemtl brushes/Ground/coast_sand
f  50/95/42  43/94/42  51/92/42
usemtl brushes/Ground/coast_sand
f  51/92/43  43/94/43  52/93/43
usemtl brushes/Ground/coast_sand
f  36/103/44  31/104/44  33/105/44  48/106/44
usemtl brushes/Ground/coast_sand
f  37/107/45  36/103/45  48/106/45  46/108/45
usemtl brushes/Ground/coast_sand
f  38/109/46  37/110/46  46/111/46  45/112/46
usemtl brushes/Ground/coast_sand
f  39/113/47  38/109/47  45/112/47  44/114/47
usemtl brushes/Ground/coast_sand
f  40/115/48  39/113/48  44/114/48  47/116/48
usemtl brushes/Ground/coast_sand
f  52/117/49  43/118/49  32/119/49  35/120/49
usemtl brushes/Ground/coast_sand
f  41/121/50  40/115/50  47/116/50  49/122/50
usemtl brushes/Ground/coast_sand
f  51/123/51  52/117/51  35/120/51  34/124/51
usemtl brushes/Ground/coast_sand
f  42/125/52  41/121/52  49/122/52  50/126/52
usemtl brushes/Ground/coast_sand
f  50/126/53  51/123/53  34/124/53  42/125/53

o entity0_brush2
usemtl brushes/Water/Water1_t
f  53/127/54  54/128/54  55/129/54  56/130/54
usemtl brushes/Water/Water1_t
f  57/131/55  55/132/55  54/133/55  58/134/55
usemtl brushes/Water/Water1_t
f  58/135/31  54/136/31  53/137/31  59/138/31
usemtl brushes/Water/Water1_t
f  60/139/32  56/140/32  55/141/32  57/142/32
usemtl brushes/Water/Water1_t
f  59/143/56  53/144/56  56/145/56  60/146/56
usemtl brushes/Water/Water1_t
f  60/147/57  57/148/57  58/149/57  59/150/57

o entity0_brush3
usemtl brushes/Ground/coast_sand
f  61/151/58  62/152/58  63/153/58  64/154/58
usemtl brushes/Ground/coast_sand
f  65/155/59  63/156/59  62/157/59  66/158/59
usemtl brushes/Ground/coast_sand
f  66/159/60  62/160/60  61/161/60  67/162/60
usemtl brushes/Ground/coast_sand
f  68/163/61  64/164/61  63/165/61  65/166/61
usemtl brushes/Ground/coast_sand
f  67/167/62  61/168/62  64/169/62  68/170/62
usemtl brushes/Ground/coast_sand
f  68/171/63  65/172/63  66/173/63  67/174/63

