mtllib recastTest.mtl
# vertices
v 592 -256 208
v 592 -256 336
v 592 -224 336
v 592 -224 208
v 720 -224 336
v 720 -256 336
v 720 -256 208
v 720 -224 208
v 192 -256 224
v 192 -256 272
v 192 -224 272
v 192 -224 224
v 592 -224 272
v 592 -256 272
v 592 -256 224
v 592 -224 224
v 192 -256 -32
v 192 -256 224
v 192 -224 224
v 192 -224 -32
v 272 -224 224
v 272 -256 224
v 272 -256 -32
v 272 -224 -32
v -912 -256 -176
v -912 -256 1008
v -912 -224 1008
v -912 -224 -176
v 208 -224 1008
v 208 -256 1008
v 208 -256 -176
v 208 -224 -176
v -176 -96 96
v -176 -96 288
v -176 -64 288
v -176 -64 96
v 16 -64 288
v 16 -96 288
v 16 -96 96
v 16 -64 96
v -176 -224 496
v -160 -64 288
v -176 -224 448
v -160 -96 288
v -64 -64 288
v -48 -224 496
v -48 -224 448
v -64 -96 288
v -752 -224 240
v -752 -224 320
v -752 -160 320
v -752 -160 240
v -736 -160 320
v -736 -224 320
v -736 -224 240
v -736 -160 240
v -736 -224 144
v -736 -224 160
v -736 -160 160
v -736 -160 144
v -528 -160 160
v -528 -224 160
v -528 -224 144
v -528 -160 144
v -736 -224 304
v -736 -224 320
v -736 -160 320
v -736 -160 304
v -528 -160 320
v -528 -224 320
v -528 -224 304
v -528 -160 304
v -752 -224 -0
v -752 -224 96
v -752 -160 96
v -752 -160 -0
v -736 -160 96
v -736 -224 96
v -736 -224 -0
v -736 -160 -0
v -736 -224 -80
v -736 -224 -64
v -736 -160 -64
v -736 -160 -80
v -528 -160 -64
v -528 -224 -64
v -528 -224 -80
v -528 -160 -80
v -624 -224 16
v -624 -224 144
v -624 -160 144
v -624 -160 16
v -608 -160 144
v -608 -224 144
v -608 -224 16
v -608 -160 16
v -656 -224 160
v -656 -224 240
v -656 -160 240
v -656 -160 160
v -640 -160 240
v -640 -224 240
v -640 -224 160
v -640 -160 160
v -896 -224 304
v -896 -224 320
v -896 -160 320
v -896 -160 304
v -848 -160 320
v -848 -224 320
v -848 -224 304
v -848 -160 304
v -896 -224 -80
v -896 -224 304
v -896 -160 304
v -896 -160 -80
v -880 -160 304
v -880 -224 304
v -880 -224 -80
v -880 -160 -80
v -736 -224 48
v -736 -224 64
v -736 -176 64
v -736 -176 48
v -624 -176 64
v -624 -224 64
v -624 -224 48
v -624 -176 48
v -528 -224 -16
v -528 -224 144
v -528 -160 144
v -528 -160 -16
v -512 -160 144
v -512 -224 144
v -512 -224 -16
v -512 -160 -16
v -608 -224 -176
v -608 -224 -80
v -608 -160 -80
v -608 -160 -176
v -592 -160 -80
v -592 -224 -80
v -592 -224 -176
v -592 -160 -176
v -832 -224 32
v -832 -224 160
v -832 -160 160
v -832 -160 32
v -816 -160 160
v -816 -224 160
v -816 -224 32
v -816 -160 32
v -784 -224 304
v -784 -224 320
v -784 -160 320
v -784 -160 304
v -752 -160 320
v -752 -224 320
v -752 -224 304
v -752 -160 304
v -864 -224 320
v -864 -224 416
v -864 -160 416
v -864 -160 320
v -848 -160 416
v -848 -224 416
v -848 -224 320
v -848 -160 320
v -784 -224 320
v -784 -224 416
v -784 -160 416
v -784 -160 320
v -768 -160 416
v -768 -224 416
v -768 -224 320
v -768 -160 320

# texture coordinates
vt -0.75 -0.9375
vt -1.25 -0.9375
vt -1.25 -0.8125
vt -0.75 -0.8125
vt 2.75 -0.8125
vt 2.25 -0.8125
vt 2.25 -0.9375
vt 2.75 -0.9375
vt 2.75 -1.25
vt 2.25 -1.25
vt 2.25 -0.75
vt 2.75 -0.75
vt -3.5 -4
vt -4.25 -4
vt -4.25 -3.5
vt -3.5 -3.5
vt 9.25 -3.5
vt 3 -3.5
vt 3 -4
vt 9.25 -4
vt 9.25 -4.25
vt 3 -4.25
vt 0.5 -4
vt 0.5 -3.5
vt 4.25 -3.5
vt 4.25 -4
vt 3 0.5
vt 4.25 0.5
vt 0.6875 -1
vt -3.9375 -1
vt -3.9375 -0.875
vt 0.6875 -0.875
vt 0.75 -0.875
vt -3.625 -0.875
vt -3.625 -1
vt 0.75 -1
vt 0.75 -3.9375
vt -3.625 -3.9375
vt -3.625 0.6875
vt 0.75 0.6875
vt -0.75 -1.5
vt -3.75 -1.5
vt -3.75 -1
vt -0.75 -1
vt -0.25 -1
vt -3.25 -1
vt -3.25 -1.5
vt -0.25 -1.5
vt -0.25 -3.75
vt -3.25 -3.75
vt -3.25 -0.75
vt -0.25 -0.75
vt -7.75 -3.5
vt -4.5 -1
vt -7 -3.5
vt -4.5 -1.5
vt -1 -4.5
vt -2.5 -4.5
vt -2.75 -7.75
vt -0.75 -7.75
vt -2.75 -7
vt -0.75 -7
vt -1 -1.5
vt -2.5 -1.5
vt -2.5 -1
vt -1 -1
vt -3.75 -3.5
vt -5 -3.5
vt -5 -2.5
vt -3.75 -2.5
vt -11.5 -2.5
vt -11.75 -2.5
vt -11.75 -3.5
vt -11.5 -3.5
vt -11.5 -5
vt -11.75 -5
vt -11.75 -3.75
vt -11.5 -3.75
vt -2.25 -3.5
vt -2.5 -3.5
vt -2.5 -2.5
vt -2.25 -2.5
vt -8.25 -2.5
vt -8.25 -3.5
vt -11.5 -2.25
vt -8.25 -2.25
vt -4.75 -3.5
vt -4.75 -2.5
vt -8.25 -5
vt -11.5 -4.75
vt -8.25 -4.75
vt -0.5 -3.5
vt -2 -3.5
vt -2 -2.5
vt -0.5 -2.5
vt -11.5 -2
vt -11.75 -2
vt -11.75 -0.5
vt -11.5 -0.5
vt 1.25 -3.5
vt 1 -3.5
vt 1 -2.5
vt 1.25 -2.5
vt -8.25 1
vt -11.5 1
vt -11.5 1.25
vt -8.25 1.25
vt -0.25 -3.5
vt -0.25 -2.5
vt -9.5 -2.5
vt -9.75 -2.5
vt -9.75 -3.5
vt -9.5 -3.5
vt -9.5 -2.25
vt -9.75 -2.25
vt -9.75 -0.25
vt -9.5 -0.25
vt -9.5 -3.75
vt -9.75 -3.75
vt -13.25 -2.5
vt -14 -2.5
vt -14 -3.5
vt -13.25 -3.5
vt -13.25 -5
vt -14 -5
vt -14 -4.75
vt -13.25 -4.75
vt -13.75 -2.5
vt -13.75 -3.5
vt -13.75 -4.75
vt -14 1.25
vt -13.75 1.25
vt -0.75 -3.5
vt -1 -3.5
vt -1 -2.75
vt -0.75 -2.75
vt -9.75 -2.75
vt -11.5 -2.75
vt -9.75 -1
vt -11.5 -1
vt -11.5 -0.75
vt -9.75 -0.75
vt 0.25 -3.5
vt 0.25 -2.5
vt -8 -2.5
vt -8 -3.5
vt -8 -2.25
vt -8.25 0.25
vt -8 0.25
vt 2.75 -3.5
vt 2.75 -2.5
vt -9.25 -2.5
vt -9.25 -3.5
vt -9.25 1.25
vt -9.5 1.25
vt -9.5 2.75
vt -9.25 2.75
vt -12.5 -2.5
vt -12.75 -2.5
vt -12.75 -3.5
vt -12.5 -3.5
vt -12.75 -0.5
vt -12.5 -0.5
vt -12.25 -2.5
vt -12.25 -3.5
vt -12.25 -5
vt -12.25 -4.75
vt -11.75 -4.75
vt -6.5 -3.5
vt -6.5 -2.5
vt -13.5 -2.5
vt -13.5 -3.5
vt -13.25 -6.5
vt -13.5 -6.5
vt -13.5 -5
vt -12 -2.5
vt -12 -3.5
vt -12 -6.5
vt -12.25 -6.5
vt -12 -5

# normals
vn -1 0 -0
vn 0 0 1
vn 0 -1 -0
vn 0 1 -0
vn 0 0 -1
vn 1 0 -0
vn -0.9950371902099892 0.09950371902099892 -0
vn -0.9950371902099892 0 -0.09950371902099892
vn 0 0.7926239891046001 0.6097107608496923
vn 0 -0.7808688094430304 -0.6246950475544243
vn 0.9950371902099892 0.09950371902099892 -0
vn 0.9950371902099892 0 -0.09950371902099892

o entity0_brush0
usemtl brushes/grass
f  1/1/1  2/2/1  3/3/1  4/4/1
usemtl brushes/grass
f  5/5/2  3/6/2  2/7/2  6/8/2
usemtl brushes/grass
f  6/9/3  2/10/3  1/11/3  7/12/3
usemtl brushes/grass
f  8/12/4  4/11/4  3/10/4  5/9/4
usemtl brushes/grass
f  7/8/5  1/7/5  4/6/5  8/5/5
usemtl brushes/grass
f  8/4/6  5/3/6  6/2/6  7/1/6

o entity0_brush1
usemtl brushes/bricks
f  9/13/1  10/14/1  11/15/1  12/16/1
usemtl brushes/bricks
f  13/17/2  11/18/2  10/19/2  14/20/2
usemtl brushes/bricks
f  14/21/3  10/22/3  9/18/3  15/17/3
usemtl brushes/bricks
f  16/17/4  12/18/4  11/22/4  13/21/4
usemtl brushes/bricks
f  15/20/5  9/19/5  12/18/5  16/17/5
usemtl brushes/bricks
f  16/16/6  13/15/6  14/14/6  15/13/6

o entity0_brush2
usemtl brushes/bricks
f  17/23/1  18/13/1  19/16/1  20/24/1
usemtl brushes/bricks
f  21/25/2  19/18/2  18/19/2  22/26/2
usemtl brushes/bricks
f  22/25/3  18/18/3  17/27/3  23/28/3
usemtl brushes/bricks
f  24/28/4  20/27/4  19/18/4  21/25/4
usemtl brushes/bricks
f  23/26/5  17/19/5  20/18/5  24/25/5
usemtl brushes/bricks
f  24/24/6  21/16/6  22/13/6  23/23/6

o entity0_brush3
usemtl brushes/grass
f  25/29/1  26/30/1  27/31/1  28/32/1
usemtl brushes/grass
f  29/33/2  27/34/2  26/35/2  30/36/2
usemtl brushes/grass
f  30/37/3  26/38/3  25/39/3  31/40/3
usemtl brushes/grass
f  32/40/4  28/39/4  27/38/4  29/37/4
usemtl brushes/grass
f  31/36/5  25/35/5  28/34/5  32/33/5
usemtl brushes/grass
f  32/32/6  29/31/6  30/30/6  31/29/6

o entity0_brush4
usemtl brushes/bricks
f  33/41/1  34/42/1  35/43/1  36/44/1
usemtl brushes/bricks
f  37/45/2  35/46/2  34/47/2  38/48/2
usemtl brushes/bricks
f  38/49/3  34/50/3  33/51/3  39/52/3
usemtl brushes/bricks
f  40/52/4  36/51/4  35/50/4  37/49/4
usemtl brushes/bricks
f  39/48/5  33/47/5  36/46/5  40/45/5
usemtl brushes/bricks
f  40/44/6  37/43/6  38/42/6  39/41/6

o entity0_brush5
usemtl brushes/bricks
f  41/53/7  42/54/7  43/55/7
usemtl brushes/bricks
f  44/56/8  43/55/8  42/54/8
usemtl brushes/bricks
f  45/57/9  42/58/9  41/59/9  46/60/9
usemtl brushes/bricks
f  46/60/3  41/59/3  43/61/3  47/62/3
usemtl brushes/bricks
f  47/62/10  43/61/10  44/58/10  48/57/10
usemtl brushes/bricks
f  48/63/5  44/64/5  42/65/5  45/66/5
usemtl brushes/bricks
f  45/54/11  46/53/11  47/55/11
usemtl brushes/bricks
f  48/56/12  45/54/12  47/55/12

o entity0_brush6
usemtl brushes/bricks
f  49/67/1  50/68/1  51/69/1  52/70/1
usemtl brushes/bricks
f  53/71/2  51/72/2  50/73/2  54/74/2
usemtl brushes/bricks
f  54/75/3  50/76/3  49/77/3  55/78/3
usemtl brushes/bricks
f  56/78/4  52/77/4  51/76/4  53/75/4
usemtl brushes/bricks
f  55/74/5  49/73/5  52/72/5  56/71/5
usemtl brushes/bricks
f  56/70/6  53/69/6  54/68/6  55/67/6

o entity0_brush7
usemtl brushes/bricks
f  57/79/1  58/80/1  59/81/1  60/82/1
usemtl brushes/bricks
f  61/83/2  59/71/2  58/74/2  62/84/2
usemtl brushes/bricks
f  62/83/3  58/71/3  57/85/3  63/86/3
usemtl brushes/bricks
f  64/86/4  60/85/4  59/71/4  61/83/4
usemtl brushes/bricks
f  63/84/5  57/74/5  60/71/5  64/83/5
usemtl brushes/bricks
f  64/82/6  61/81/6  62/80/6  63/79/6

o entity0_brush8
usemtl brushes/bricks
f  65/87/1  66/68/1  67/69/1  68/88/1
usemtl brushes/bricks
f  69/83/2  67/71/2  66/74/2  70/84/2
usemtl brushes/bricks
f  70/89/3  66/75/3  65/90/3  71/91/3
usemtl brushes/bricks
f  72/91/4  68/90/4  67/75/4  69/89/4
usemtl brushes/bricks
f  71/84/5  65/74/5  68/71/5  72/83/5
usemtl brushes/bricks
f  72/88/6  69/69/6  70/68/6  71/87/6

o entity0_brush9
usemtl brushes/bricks
f  73/92/1  74/93/1  75/94/1  76/95/1
usemtl brushes/bricks
f  77/71/2  75/72/2  74/73/2  78/74/2
usemtl brushes/bricks
f  78/96/3  74/97/3  73/98/3  79/99/3
usemtl brushes/bricks
f  80/99/4  76/98/4  75/97/4  77/96/4
usemtl brushes/bricks
f  79/74/5  73/73/5  76/72/5  80/71/5
usemtl brushes/bricks
f  80/95/6  77/94/6  78/93/6  79/92/6

o entity0_brush10
usemtl brushes/bricks
f  81/100/1  82/101/1  83/102/1  84/103/1
usemtl brushes/bricks
f  85/83/2  83/71/2  82/74/2  86/84/2
usemtl brushes/bricks
f  86/104/3  82/105/3  81/106/3  87/107/3
usemtl brushes/bricks
f  88/107/4  84/106/4  83/105/4  85/104/4
usemtl brushes/bricks
f  87/84/5  81/74/5  84/71/5  88/83/5
usemtl brushes/bricks
f  88/103/6  85/102/6  86/101/6  87/100/6

o entity0_brush11
usemtl brushes/bricks
f  89/108/1  90/79/1  91/82/1  92/109/1
usemtl brushes/bricks
f  93/110/2  91/111/2  90/112/2  94/113/2
usemtl brushes/bricks
f  94/114/3  90/115/3  89/116/3  95/117/3
usemtl brushes/bricks
f  96/117/4  92/116/4  91/115/4  93/114/4
usemtl brushes/bricks
f  95/113/5  89/112/5  92/111/5  96/110/5
usemtl brushes/bricks
f  96/109/6  93/82/6  94/79/6  95/108/6

o entity0_brush12
usemtl brushes/bricks
f  97/80/1  98/67/1  99/70/1  100/81/1
usemtl brushes/bricks
f  101/110/2  99/111/2  98/112/2  102/113/2
usemtl brushes/bricks
f  102/118/3  98/119/3  97/111/3  103/110/3
usemtl brushes/bricks
f  104/110/4  100/111/4  99/119/4  101/118/4
usemtl brushes/bricks
f  103/113/5  97/112/5  100/111/5  104/110/5
usemtl brushes/bricks
f  104/81/6  101/70/6  102/67/6  103/80/6

o entity0_brush13
usemtl brushes/bricks
f  105/87/1  106/68/1  107/69/1  108/88/1
usemtl brushes/bricks
f  109/120/2  107/121/2  106/122/2  110/123/2
usemtl brushes/bricks
f  110/124/3  106/125/3  105/126/3  111/127/3
usemtl brushes/bricks
f  112/127/4  108/126/4  107/125/4  109/124/4
usemtl brushes/bricks
f  111/123/5  105/122/5  108/121/5  112/120/5
usemtl brushes/bricks
f  112/88/6  109/69/6  110/68/6  111/87/6

o entity0_brush14
usemtl brushes/bricks
f  113/100/1  114/87/1  115/88/1  116/103/1
usemtl brushes/bricks
f  117/128/2  115/121/2  114/122/2  118/129/2
usemtl brushes/bricks
f  118/130/3  114/126/3  113/131/3  119/132/3
usemtl brushes/bricks
f  120/132/4  116/131/4  115/126/4  117/130/4
usemtl brushes/bricks
f  119/129/5  113/122/5  116/121/5  120/128/5
usemtl brushes/bricks
f  120/103/6  117/88/6  118/87/6  119/100/6

o entity0_brush15
usemtl brushes/bricks
f  121/133/1  122/134/1  123/135/1  124/136/1
usemtl brushes/bricks
f  125/137/2  123/138/2  122/74/2  126/112/2
usemtl brushes/bricks
f  126/139/3  122/140/3  121/141/3  127/142/3
usemtl brushes/bricks
f  128/142/4  124/141/4  123/140/4  125/139/4
usemtl brushes/bricks
f  127/112/5  121/74/5  124/138/5  128/137/5
usemtl brushes/bricks
f  128/136/6  125/135/6  126/134/6  127/133/6

o entity0_brush16
usemtl brushes/bricks
f  129/143/1  130/79/1  131/82/1  132/144/1
usemtl brushes/bricks
f  133/145/2  131/83/2  130/84/2  134/146/2
usemtl brushes/bricks
f  134/147/3  130/86/3  129/148/3  135/149/3
usemtl brushes/bricks
f  136/149/4  132/148/4  131/86/4  133/147/4
usemtl brushes/bricks
f  135/146/5  129/84/5  132/83/5  136/145/5
usemtl brushes/bricks
f  136/144/6  133/82/6  134/79/6  135/143/6

o entity0_brush17
usemtl brushes/bricks
f  137/150/1  138/100/1  139/103/1  140/151/1
usemtl brushes/bricks
f  141/152/2  139/110/2  138/113/2  142/153/2
usemtl brushes/bricks
f  142/154/3  138/155/3  137/156/3  143/157/3
usemtl brushes/bricks
f  144/157/4  140/156/4  139/155/4  141/154/4
usemtl brushes/bricks
f  143/153/5  137/113/5  140/110/5  144/152/5
usemtl brushes/bricks
f  144/151/6  141/103/6  142/100/6  143/150/6

o entity0_brush18
usemtl brushes/bricks
f  145/92/1  146/80/1  147/81/1  148/95/1
usemtl brushes/bricks
f  149/158/2  147/159/2  146/160/2  150/161/2
usemtl brushes/bricks
f  150/158/3  146/159/3  145/162/3  151/163/3
usemtl brushes/bricks
f  152/163/4  148/162/4  147/159/4  149/158/4
usemtl brushes/bricks
f  151/161/5  145/160/5  148/159/5  152/158/5
usemtl brushes/bricks
f  152/95/6  149/81/6  150/80/6  151/92/6

o entity0_brush19
usemtl brushes/bricks
f  153/87/1  154/68/1  155/69/1  156/88/1
usemtl brushes/bricks
f  157/72/2  155/164/2  154/165/2  158/73/2
usemtl brushes/bricks
f  158/76/3  154/166/3  153/167/3  159/168/3
usemtl brushes/bricks
f  160/168/4  156/167/4  155/166/4  157/76/4
usemtl brushes/bricks
f  159/73/5  153/165/5  156/164/5  160/72/5
usemtl brushes/bricks
f  160/88/6  157/69/6  158/68/6  159/87/6

o entity0_brush20
usemtl brushes/bricks
f  161/68/1  162/169/1  163/170/1  164/69/1
usemtl brushes/bricks
f  165/120/2  163/171/2  162/172/2  166/123/2
usemtl brushes/bricks
f  166/173/3  162/174/3  161/175/3  167/124/3
usemtl brushes/bricks
f  168/124/4  164/175/4  163/174/4  165/173/4
usemtl brushes/bricks
f  167/123/5  161/172/5  164/171/5  168/120/5
usemtl brushes/bricks
f  168/69/6  165/170/6  166/169/6  167/68/6

o entity0_brush21
usemtl brushes/bricks
f  169/68/1  170/169/1  171/170/1  172/69/1
usemtl brushes/bricks
f  173/176/2  171/164/2  170/165/2  174/177/2
usemtl brushes/bricks
f  174/178/3  170/179/3  169/166/3  175/180/3
usemtl brushes/bricks
f  176/180/4  172/166/4  171/179/4  173/178/4
usemtl brushes/bricks
f  175/177/5  169/165/5  172/164/5  176/176/5
usemtl brushes/bricks
f  176/69/6  173/170/6  174/169/6  175/68/6

