mtllib test3.mtl
# vertices
v -128 -16 -224
v -128 -16 288
v -128 16 288
v -128 16 -224
v 208 16 288
v 208 -16 288
v 208 -16 -224
v 208 16 -224
v -48 16 -192
v -48 16 -64
v -48 128 -64
v -48 128 -192
v 176 128 -64
v 176 16 -64
v 176 16 -192
v 176 128 -192

# texture coordinates
vt 2.1875 -0.15625
vt -2.8125 -0.15625
vt -2.8125 0.15625
vt 2.1875 0.15625
vt 2.031994 0.15625
vt -1.2492559 0.15625
vt -1.2492559 -0.15625
vt 2.031994 -0.15625
vt 2.031994 -2.8125
vt -1.2492559 -2.8125
vt -1.2492559 2.1875
vt 2.031994 2.1875
vt 0.1875 0.015625
vt 0.0625 0.015625
vt 0.0625 0.125
vt 0.1875 0.125
vt 0.171875 0.125
vt -0.046875 0.125
vt -0.046875 0.015625
vt 0.171875 0.015625
vt 0.171875 0.0625
vt -0.046875 0.0625
vt -0.046875 0.1875
vt 0.171875 0.1875

# normals
vn -1 0 -0
vn 0 0 1
vn 0 -1 -0
vn 0 1 -0
vn 0 0 -1
vn 1 0 -0

o entity0_brush0
usemtl brushes/ground_pbr
f  1/1/1  2/2/1  3/3/1  4/4/1
usemtl brushes/ground_pbr
f  5/5/2  3/6/2  2/7/2  6/8/2
usemtl brushes/ground_pbr
f  6/9/3  2/10/3  1/11/3  7/12/3
usemtl brushes/ground_pbr
f  8/12/4  4/11/4  3/10/4  5/9/4
usemtl brushes/ground_pbr
f  7/8/5  1/7/5  4/6/5  8/5/5
usemtl brushes/ground_pbr
f  8/4/6  5/3/6  6/2/6  7/1/6

o entity2_brush0
usemtl brushes/ground_pbr
f  9/13/1  10/14/1  11/15/1  12/16/1
usemtl brushes/ground_pbr
f  13/17/2  11/18/2  10/19/2  14/20/2
usemtl brushes/ground_pbr
f  14/21/3  10/22/3  9/23/3  15/24/3
usemtl brushes/ground_pbr
f  16/24/4  12/23/4  11/22/4  13/21/4
usemtl brushes/ground_pbr
f  15/20/5  9/19/5  12/18/5  16/17/5
usemtl brushes/ground_pbr
f  16/16/6  13/15/6  14/14/6  15/13/6

