mtllib test2.mtl
# vertices
v -352 16 -528
v -352 16 480
v -352 304 480
v -352 304 -528
v -320 304 480
v -320 16 480
v -320 16 -528
v -320 304 -528
v -352 0 -560
v -352 0 -528
v -352 304 -528
v -352 304 -560
v 544 304 -528
v 544 0 -528
v 544 0 -560
v 544 304 -560
v -896 208 -768
v -896 208 -288
v -896 272 -288
v -896 272 -768
v -608 272 -288
v -608 208 -288
v -608 208 -768
v -608 272 -768
v -1456 16 -544
v -1456 16 -304
v -1456 64 -304
v -1456 64 -544
v -1120 16 -288
v -1216 64 -304
v -992 16 -288
v -992 16 -400
v -1200 16 -544
v -1216 64 -544
v -1792 16 -544
v -1792 16 -304
v -1792 64 -304
v -1792 64 -544
v -1456 64 -304
v -1456 16 -304
v -1456 16 -544
v -1456 64 -544
v -1792 16 -304
v -1792 16 32
v -1792 64 32
v -1792 64 -304
v -1568 64 32
v -1568 16 32
v -1568 16 -304
v -1568 64 -304
v -1568 16 -304
v -1568 16 32
v -1568 96 32
v -1568 96 -304
v -1552 96 32
v -1552 16 32
v -1552 16 -304
v -1552 96 -304
v -1552 16 -304
v -1552 16 -288
v -1552 96 -288
v -1552 96 -304
v -1056 96 -288
v -1056 16 -288
v -1056 16 -304
v -1056 96 -304
v -896 16 -768
v -896 16 -720
v -896 224 -720
v -896 224 -768
v -608 224 -720
v -608 16 -720
v -608 16 -768
v -608 224 -768
v -896 16 -720
v -896 16 -480
v -896 224 -480
v -896 224 -720
v -880 224 -480
v -880 16 -480
v -880 16 -720
v -880 224 -720
v -624 16 -720
v -624 16 -480
v -624 224 -480
v -624 224 -720
v -608 224 -480
v -608 16 -480
v -608 16 -720
v -608 224 -720
v 432 16 -400
v 432 16 208
v 432 208 208
v 432 208 -400
v 480 208 208
v 480 16 208
v 480 16 -400
v 480 208 -400
v -11856 -16 -11072
v -11856 -16 9184
v -11856 16 9184
v -11856 16 -11072
v 7984 16 9184
v 7984 -16 9184
v 7984 -16 -11072
v 7984 16 -11072
v 512 16 -560
v 512 16 464
v 512 304 464
v 512 304 -560
v 544 304 464
v 544 16 464
v 544 16 -560
v 544 304 -560
v -552 16 680
v -552 16 800
v -552 448 800
v -552 448 680
v 736 448 800
v 736 16 800
v 736 16 680
v 736 448 680
v -1520 80 272
v -1520 16 272
v -1520 16 384
v -1520 80 384
v -1344 16 384
v -1344 16 272
v -104 16 176
v -104 16 384
v -104 216 384
v -104 216 176
v 248 216 384
v 248 16 384
v 248 16 176
v 248 216 176
v -144 82.61011441567553 -116.66737769936663
v -144 106.22626657837827 17.26647671028877
v -144 125.92242163862244 13.793513156950151
v -144 102.30626947591668 -120.14034125270962
v -140 125.92242163862244 13.793513156950151
v -140 106.22626657837827 17.26647671028877
v -140 82.61011441567553 -116.66737769936663
v -140 102.30626947591668 -120.14034125270962
v -144 49.972254129734665 -120.78710838321058
v -144 38.11907311605319 14.69537055726505
v -144 58.04296707789035 16.438485412218142
v -144 69.89614809157152 -119.04399352825774
v -140 58.04296707789035 16.438485412218142
v -140 38.11907311605319 14.69537055726505
v -140 69.89614809157152 -119.04399352825774
v -140 49.972254129734665 -120.78710838321058
v -320 288 -256
v -320 288 144
v -320 304 144
v -320 304 -256
v -144 304 144
v -144 288 144
v -144 288 -256
v -144 304 -256
v -160 16 -256
v -160 16 -112
v -160 288 -112
v -160 288 -256
v -144 288 -112
v -144 16 -112
v -144 16 -256
v -144 288 -256
v -320 16 -304
v -320 16 -256
v -320 304 -256
v -320 304 -304
v -144 304 -256
v -144 16 -256
v -144 16 -304
v -144 304 -304
v -160 16 -0
v -160 16 144
v -160 288 144
v -160 288 -0
v -144 288 144
v -144 16 144
v -144 16 -0
v -144 288 -0
v -160 160 -112
v -160 160 -0
v -160 288 -0
v -160 288 -112
v -144 288 -0
v -144 160 -0
v -144 160 -112
v -144 288 -112
v -320 16 144
v -320 16 192
v -320 304 192
v -320 304 144
v -144 304 192
v -144 16 192
v -144 16 144
v -144 304 144

# texture coordinates
vt 3.4374998 0.20833333
vt -3.1249998 0.20833333
vt -3.1249998 3.9583333
vt 3.4374998 3.9583333
vt -2.0833333 3.9583333
vt -2.2916665 3.9583333
vt -2.2916665 0.20833333
vt -2.0833333 0.20833333
vt -2.0833333 -6.2499995
vt -2.2916665 -6.2499995
vt -2.2916665 6.8749995
vt -2.0833333 6.8749995
vt 11.666667 -0
vt 11 -0
vt 11 6.3333335
vt 11.666667 6.3333335
vt 11.333333 6.3333335
vt -7.3333335 6.3333335
vt -7.3333335 -0
vt 11.333333 -0
vt 11.333333 11
vt -7.3333335 11
vt -7.3333335 11.666667
vt 11.333333 11.666667
vt 16 4.3333335
vt 6 4.3333335
vt 6 5.6666665
vt 16 5.6666665
vt -12.666667 5.6666665
vt -18.666666 5.6666665
vt -18.666666 4.3333335
vt -12.666667 4.3333335
vt -12.666667 6
vt -18.666666 6
vt -18.666666 16
vt -12.666667 16
vt 17 0.5
vt 9.5 0.5
vt 9.5 2
vt 17 2
vt -35 0.5
vt -45.5 2
vt -45.5 0.5
vt -38 2
vt -31 0.5
vt -31 12.5
vt -31 9
vt -35 9
vt -45.5 9.5
vt -45.5 17
vt -37.5 17
vt -38 17
vt -38 9.5
vt -37.5 0.5
vt -56 2
vt -56 0.5
vt -56 9.5
vt -56 17
vt -1 0.5
vt -1 2
vt -49 2
vt -49 0.5
vt -49 -1
vt -56 -1
vt -49 9.5
vt -1 3
vt 9.5 3
vt -48.5 3
vt -49 3
vt -48.5 0.5
vt -48.5 -1
vt -48.5 9.5
vt 9 0.5
vt 9 3
vt -33 3
vt -33 0.5
vt -33 9
vt -48.5 9
vt -33 9.5
vt 16 0.33333334
vt 15 0.33333334
vt 15 4.6666665
vt 16 4.6666665
vt -12.666667 4.6666665
vt -18.666666 4.6666665
vt -18.666666 0.33333334
vt -12.666667 0.33333334
vt -12.666667 15
vt -18.666666 15
vt 10 0.33333334
vt 10 4.6666665
vt -18.333334 4.6666665
vt -18.333334 0.33333334
vt -18.333334 10
vt -18.666666 10
vt -18.333334 15
vt -13 4.6666665
vt -13 0.33333334
vt -12.666667 10
vt -13 10
vt -13 15
vt 2.6041665 0.20833333
vt -1.3541666 0.20833333
vt -1.3541666 2.7083333
vt 2.6041665 2.7083333
vt 3.1249998 2.7083333
vt 2.8125 2.7083333
vt 2.8125 0.20833333
vt 3.1249998 0.20833333
vt 3.1249998 -2.7083333
vt 2.8125 -2.7083333
vt 2.8125 5.208333
vt 3.1249998 5.208333
vt 63.60294 -0.09191176
vt -52.75735 -0.09191176
vt -52.75735 0.09191176
vt 63.60294 0.09191176
vt 45.86397 0.09191176
vt -68.10661 0.09191176
vt -68.10661 -0.09191176
vt 45.86397 -0.09191176
vt 45.86397 -52.75735
vt -68.10661 -52.75735
vt -68.10661 63.60294
vt 45.86397 63.60294
vt 11.666667 0.33333334
vt -9.666667 0.33333334
vt -9.666667 6.3333335
vt 10.666667 6.3333335
vt 10.666667 0.33333334
vt 11.333333 0.33333334
vt 11.333333 -9.666667
vt 10.666667 -9.666667
vt 10.666667 11.666667
vt -14.166667 0.33333334
vt -16.666666 0.33333334
vt -16.666666 9.333333
vt -14.166667 9.333333
vt 15.333333 9.333333
vt -11.5 9.333333
vt -11.5 0.33333334
vt 15.333333 0.33333334
vt 15.333333 -16.666666
vt -11.5 -16.666666
vt -11.5 -14.166667
vt 15.333333 -14.166667
vt -272 80
vt -272 16
vt -384 16
vt -384 80
vt -1520 80
vt -1520 16
vt -1344 16
vt -1344 -384
vt -1520 -384
vt -1520 -272
vt -1344 -272
vt -0.6875 0.0625
vt -1.5 0.0625
vt -1.5 0.84375
vt -0.6875 0.84375
vt 0.96875 0.84375
vt -0.40625 0.84375
vt -0.40625 0.0625
vt 0.96875 0.0625
vt 0.96875 -1.5
vt -0.40625 -1.5
vt -0.40625 -0.6875
vt 0.96875 -0.6875
vt 3.647504 2.56272
vt -0.6024958 2.5627189
vt -0.602496 3.1877189
vt 3.647504 3.18772
vt -4.375 3.9350758
vt -4.5 3.9350758
vt -4.5 3.3195708
vt -4.375 3.3195708
vt -4.375 -0.5395774
vt -4.5 -0.5395774
vt -4.5 3.6458557
vt -4.375 3.6458557
vt -4.375 3.7543857
vt -4.5 3.7543857
vt -4.5 -0.4310473
vt -4.375 -0.4310473
vt -4.375 2.581566
vt -4.5 2.581566
vt -4.5 3.1970708
vt -4.375 3.1970708
vt 3.5822697 3.9333584
vt -0.66773033 3.9333591
vt -0.66773045 3.3083591
vt 3.5822697 3.3083584
vt 3.8068802 1.5602231
vt -0.4431197 1.5602208
vt -0.44312003 2.1852207
vt 3.80688 2.185223
vt -4.375 1.8138428
vt -4.5 1.8138428
vt -4.5 1.191221
vt -4.375 1.191221
vt -4.375 3.7201247
vt -4.5 3.7201247
vt -4.5 -0.5137027
vt -4.375 -0.5137027
vt -4.375 -0.45923033
vt -4.5 -0.45923033
vt -4.5 3.7745972
vt -4.375 3.7745972
vt -4.375 1.561633
vt -4.5 1.561633
vt -4.5 2.1842546
vt -4.375 2.1842546
vt -0.45943773 1.8114733
vt -0.4594375 1.1864733
vt 3.7905626 1.186475
vt 3.7905624 1.811475
vt 1.8749999 -3.3333333
vt 1.8749999 1.8749999
vt 1.9791666 1.8749999
vt 1.9791666 -3.3333333
vt 1.9791666 4.1666665
vt 1.8749999 4.1666665
vt -0.93749994 1.8749999
vt -0.93749994 4.1666665
vt 1.6666666 4.1666665
vt 1.6666666 1.8749999
vt 1.6666666 0.20833333
vt 0.7291666 0.20833333
vt 0.7291666 3.7499998
vt 1.6666666 3.7499998
vt -0.93749994 3.7499998
vt -1.0416666 3.7499998
vt -1.0416666 0.20833333
vt -0.93749994 0.20833333
vt -0.93749994 1.4583333
vt -1.0416666 1.4583333
vt -1.0416666 3.3333333
vt -0.93749994 3.3333333
vt 1.9791666 0.20833333
vt 1.6666666 3.9583333
vt 1.9791666 3.9583333
vt -0.93749994 3.9583333
vt -2.0833333 3.3333333
vt -2.8125 -0.5416665
vt -2.8125 -2.833333
vt -2.5 -2.833333
vt -2.5 -0.5416665
vt 0 0.20833333
vt 0 3.7499998
vt -0.93749994 -1.8749999
vt -1.0416666 -1.8749999
vt -1.0416666 -0
vt -0.93749994 -0
vt 0.7291666 2.0833333
vt 0 2.0833333
vt -1.0416666 2.0833333
vt -0.93749994 2.0833333
vt -1.25 0.20833333
vt -1.25 3.9583333
vt -0.93749994 -2.5
vt -2.0833333 -2.5
vt -2.0833333 -1.8749999
vt -1.25 4.1666665
vt -1.25 1.8749999

# normals
vn -1 0 -0
vn -0 0 1
vn 0 -1 0
vn 0 1 -0
vn 0 0 -1
vn 1 0 -0
vn -0.04756514941544941 0 0.9988681377244376
vn 0 0.31622776601683794 0.9486832980505139
vn 0.20952908873087348 0.9778024140774095 -0
vn 0.5592327894010801 0.18641092980036003 -0.8077806958015601
vn 0.3417430630867044 0.939793423488437 -0
vn 0 0.17364817766693086 0.9848077530122079
vn 0 -0.9848077530122078 0.1736481776669317
vn 0 0.9848077530122038 -0.17364817766695398
vn 0 -0.17364817766691928 -0.98480775301221
vn -0 -0.08715574274765693 0.9961946980917457
vn 0 0.9961946980917458 0.08715574274765668
vn 0 -0.9961946980917458 -0.08715574274765668
vn 0 0.08715574274765675 -0.9961946980917457

o entity0_brush0
usemtl brushes/brickPBR
f  1/1/1  2/2/1  3/3/1  4/4/1
usemtl brushes/brickPBR
f  5/5/2  3/6/2  2/7/2  6/8/2
usemtl brushes/brickPBR
f  6/9/3  2/10/3  1/11/3  7/12/3
usemtl brushes/brickPBR
f  8/12/4  4/11/4  3/10/4  5/9/4
usemtl brushes/brickPBR
f  7/8/5  1/7/5  4/6/5  8/5/5
usemtl brushes/brickPBR
f  8/4/6  5/3/6  6/2/6  7/1/6

o entity0_brush1
usemtl brushes/bricks
f  9/13/1  10/14/1  11/15/1  12/16/1
usemtl brushes/bricks
f  13/17/2  11/18/2  10/19/2  14/20/2
usemtl brushes/bricks
f  14/21/3  10/22/3  9/23/3  15/24/3
usemtl brushes/bricks
f  16/24/4  12/23/4  11/22/4  13/21/4
usemtl brushes/bricks
f  15/20/5  9/19/5  12/18/5  16/17/5
usemtl brushes/bricks
f  16/16/6  13/15/6  14/14/6  15/13/6

o entity0_brush2
usemtl brushes/bricks
f  17/25/1  18/26/1  19/27/1  20/28/1
usemtl brushes/bricks
f  21/29/2  19/30/2  18/31/2  22/32/2
usemtl brushes/bricks
f  22/33/3  18/34/3  17/35/3  23/36/3
usemtl brushes/bricks
f  24/36/4  20/35/4  19/34/4  21/33/4
usemtl brushes/bricks
f  23/32/5  17/31/5  20/30/5  24/29/5
usemtl brushes/bricks
f  24/28/6  21/27/6  22/26/6  23/25/6

o entity0_brush3
usemtl brushes/__TB_empty
f  25/37/1  26/38/1  27/39/1  28/40/1
usemtl brushes/__TB_empty
f  29/41/7  27/42/7  26/43/7
usemtl brushes/__TB_empty
f  30/44/8  27/42/8  29/41/8  31/45/8
usemtl brushes/__TB_empty
f  32/46/3  31/47/3  29/48/3  26/49/3  25/50/3  33/51/3
usemtl brushes/__TB_empty
f  34/52/4  28/50/4  27/49/4  30/53/4
usemtl brushes/__TB_empty
f  33/54/5  25/43/5  28/42/5  34/44/5
usemtl brushes/__TB_empty
f  34/52/9  30/53/9  31/47/9  32/46/9
usemtl brushes/__TB_empty
f  33/54/10  34/44/10  32/45/10

o entity0_brush4
usemtl brushes/__TB_empty
f  35/37/1  36/38/1  37/39/1  38/40/1
usemtl brushes/__TB_empty
f  39/42/2  37/55/2  36/56/2  40/43/2
usemtl brushes/__TB_empty
f  40/49/3  36/57/3  35/58/3  41/50/3
usemtl brushes/__TB_empty
f  42/50/4  38/58/4  37/57/4  39/49/4
usemtl brushes/__TB_empty
f  41/43/5  35/56/5  38/55/5  42/42/5
usemtl brushes/__TB_empty
f  42/40/6  39/39/6  40/38/6  41/37/6

o entity0_brush5
usemtl brushes/__TB_empty
f  43/38/1  44/59/1  45/60/1  46/39/1
usemtl brushes/__TB_empty
f  47/61/2  45/55/2  44/56/2  48/62/2
usemtl brushes/__TB_empty
f  48/63/3  44/64/3  43/57/3  49/65/3
usemtl brushes/__TB_empty
f  50/65/4  46/57/4  45/64/4  47/63/4
usemtl brushes/__TB_empty
f  49/62/5  43/56/5  46/55/5  50/61/5
usemtl brushes/__TB_empty
f  50/39/6  47/60/6  48/59/6  49/38/6

o entity0_brush6
usemtl brushes/__TB_empty
f  51/38/1  52/59/1  53/66/1  54/67/1
usemtl brushes/__TB_empty
f  55/68/2  53/69/2  52/62/2  56/70/2
usemtl brushes/__TB_empty
f  56/71/3  52/63/3  51/65/3  57/72/3
usemtl brushes/__TB_empty
f  58/72/4  54/65/4  53/63/4  55/71/4
usemtl brushes/__TB_empty
f  57/70/5  51/62/5  54/69/5  58/68/5
usemtl brushes/__TB_empty
f  58/67/6  55/66/6  56/59/6  57/38/6

o entity0_brush7
usemtl brushes/__TB_empty
f  59/38/1  60/73/1  61/74/1  62/67/1
usemtl brushes/__TB_empty
f  63/75/2  61/68/2  60/70/2  64/76/2
usemtl brushes/__TB_empty
f  64/77/3  60/78/3  59/72/3  65/79/3
usemtl brushes/__TB_empty
f  66/79/4  62/72/4  61/78/4  63/77/4
usemtl brushes/__TB_empty
f  65/76/5  59/70/5  62/68/5  66/75/5
usemtl brushes/__TB_empty
f  66/67/6  63/74/6  64/73/6  65/38/6

o entity0_brush8
usemtl brushes/bricks
f  67/80/1  68/81/1  69/82/1  70/83/1
usemtl brushes/bricks
f  71/84/2  69/85/2  68/86/2  72/87/2
usemtl brushes/bricks
f  72/88/3  68/89/3  67/35/3  73/36/3
usemtl brushes/bricks
f  74/36/4  70/35/4  69/89/4  71/88/4
usemtl brushes/bricks
f  73/87/5  67/86/5  70/85/5  74/84/5
usemtl brushes/bricks
f  74/83/6  71/82/6  72/81/6  73/80/6

o entity0_brush9
usemtl brushes/bricks
f  75/81/1  76/90/1  77/91/1  78/82/1
usemtl brushes/bricks
f  79/92/2  77/85/2  76/86/2  80/93/2
usemtl brushes/bricks
f  80/94/3  76/95/3  75/89/3  81/96/3
usemtl brushes/bricks
f  82/96/4  78/89/4  77/95/4  79/94/4
usemtl brushes/bricks
f  81/93/5  75/86/5  78/85/5  82/92/5
usemtl brushes/bricks
f  82/82/6  79/91/6  80/90/6  81/81/6

o entity0_brush10
usemtl brushes/bricks
f  83/81/1  84/90/1  85/91/1  86/82/1
usemtl brushes/bricks
f  87/84/2  85/97/2  84/98/2  88/87/2
usemtl brushes/bricks
f  88/99/3  84/100/3  83/101/3  89/88/3
usemtl brushes/bricks
f  90/88/4  86/101/4  85/100/4  87/99/4
usemtl brushes/bricks
f  89/87/5  83/98/5  86/97/5  90/84/5
usemtl brushes/bricks
f  90/82/6  87/91/6  88/90/6  89/81/6

o entity0_brush11
usemtl brushes/brickPBR
f  91/102/1  92/103/1  93/104/1  94/105/1
usemtl brushes/brickPBR
f  95/106/2  93/107/2  92/108/2  96/109/2
usemtl brushes/brickPBR
f  96/110/3  92/111/3  91/112/3  97/113/3
usemtl brushes/brickPBR
f  98/113/4  94/112/4  93/111/4  95/110/4
usemtl brushes/brickPBR
f  97/109/5  91/108/5  94/107/5  98/106/5
usemtl brushes/brickPBR
f  98/105/6  95/104/6  96/103/6  97/102/6

o entity0_brush12
usemtl brushes/ground_pbr
f  99/114/1  100/115/1  101/116/1  102/117/1
usemtl brushes/ground_pbr
f  103/118/2  101/119/2  100/120/2  104/121/2
usemtl brushes/ground_pbr
f  104/122/3  100/123/3  99/124/3  105/125/3
usemtl brushes/ground_pbr
f  106/125/4  102/124/4  101/123/4  103/122/4
usemtl brushes/ground_pbr
f  105/121/5  99/120/5  102/119/5  106/118/5
usemtl brushes/ground_pbr
f  106/117/6  103/116/6  104/115/6  105/114/6

o entity0_brush13
usemtl brushes/bricks
f  107/126/1  108/127/1  109/128/1  110/16/1
usemtl brushes/bricks
f  111/17/2  109/129/2  108/130/2  112/131/2
usemtl brushes/bricks
f  112/132/3  108/133/3  107/134/3  113/24/3
usemtl brushes/bricks
f  114/24/4  110/134/4  109/133/4  111/132/4
usemtl brushes/bricks
f  113/131/5  107/130/5  110/129/5  114/17/5
usemtl brushes/bricks
f  114/16/6  111/128/6  112/127/6  113/126/6

o entity0_brush14
usemtl brushes/bricks
f  115/135/1  116/136/1  117/137/1  118/138/1
usemtl brushes/bricks
f  119/139/2  117/140/2  116/141/2  120/142/2
usemtl brushes/bricks
f  120/143/3  116/144/3  115/145/3  121/146/3
usemtl brushes/bricks
f  122/146/4  118/145/4  117/144/4  119/143/4
usemtl brushes/bricks
f  121/142/5  115/141/5  118/140/5  122/139/5
usemtl brushes/bricks
f  122/138/6  119/137/6  120/136/6  121/135/6

o entity0_brush15
usemtl __TB_empty
f  123/147/1  124/148/1  125/149/1  126/150/1
usemtl __TB_empty
f  126/151/2  125/152/2  127/153/2
usemtl __TB_empty
f  127/154/3  125/155/3  124/156/3  128/157/3
usemtl __TB_empty
f  128/153/5  124/152/5  123/151/5
usemtl __TB_empty
f  123/156/11  126/155/11  127/154/11  128/157/11

o entity3_brush0
usemtl brushes/trigger
f  129/158/1  130/159/1  131/160/1  132/161/1
usemtl brushes/trigger
f  133/162/2  131/163/2  130/164/2  134/165/2
usemtl brushes/trigger
f  134/166/3  130/167/3  129/168/3  135/169/3
usemtl brushes/trigger
f  136/169/4  132/168/4  131/167/4  133/166/4
usemtl brushes/trigger
f  135/165/5  129/164/5  132/163/5  136/162/5
usemtl brushes/trigger
f  136/161/6  133/160/6  134/159/6  135/158/6

o entity8_brush0
usemtl brushes/__TB_empty
f  137/170/1  138/171/1  139/172/1  140/173/1
usemtl brushes/__TB_empty
f  141/174/12  139/175/12  138/176/12  142/177/12
usemtl brushes/__TB_empty
f  142/178/13  138/179/13  137/180/13  143/181/13
usemtl brushes/__TB_empty
f  144/182/14  140/183/14  139/184/14  141/185/14
usemtl brushes/__TB_empty
f  143/186/15  137/187/15  140/188/15  144/189/15
usemtl brushes/__TB_empty
f  144/190/6  141/191/6  142/192/6  143/193/6

o entity9_brush0
usemtl brushes/__TB_empty
f  145/194/1  146/195/1  147/196/1  148/197/1
usemtl brushes/__TB_empty
f  149/198/16  147/199/16  146/200/16  150/201/16
usemtl brushes/__TB_empty
f  151/202/17  148/203/17  147/204/17  149/205/17
usemtl brushes/__TB_empty
f  150/206/18  146/207/18  145/208/18  152/209/18
usemtl brushes/__TB_empty
f  152/210/19  145/211/19  148/212/19  151/213/19
usemtl brushes/__TB_empty
f  149/214/6  150/215/6  152/216/6  151/217/6

o entity14_brush0
usemtl brushes/brickPBR
f  153/218/1  154/219/1  155/220/1  156/221/1
usemtl brushes/brickPBR
f  157/220/2  155/222/2  154/223/2  158/219/2
usemtl brushes/brickPBR
f  158/224/3  154/225/3  153/226/3  159/227/3
usemtl brushes/brickPBR
f  160/227/4  156/226/4  155/225/4  157/224/4
usemtl brushes/brickPBR
f  159/219/5  153/223/5  156/222/5  160/220/5
usemtl brushes/brickPBR
f  160/221/6  157/220/6  158/219/6  159/218/6

o entity14_brush1
usemtl brushes/brickPBR
f  161/228/1  162/229/1  163/230/1  164/231/1
usemtl brushes/brickPBR
f  165/232/2  163/233/2  162/234/2  166/235/2
usemtl brushes/brickPBR
f  166/236/3  162/237/3  161/238/3  167/239/3
usemtl brushes/brickPBR
f  168/239/4  164/238/4  163/237/4  165/236/4
usemtl brushes/brickPBR
f  167/235/5  161/234/5  164/233/5  168/232/5
usemtl brushes/brickPBR
f  168/231/6  165/230/6  166/229/6  167/228/6

o entity14_brush2
usemtl brushes/brickPBR
f  169/240/1  170/228/1  171/241/1  172/242/1
usemtl brushes/brickPBR
f  173/243/2  171/5/2  170/8/2  174/235/2
usemtl brushes/brickPBR
f  174/239/3  170/244/3  169/5/3  175/243/3
usemtl brushes/brickPBR
f  176/245/4  172/246/4  171/247/4  173/248/4
usemtl brushes/brickPBR
f  175/235/5  169/8/5  172/5/5  176/243/5
usemtl brushes/brickPBR
f  176/242/6  173/241/6  174/228/6  175/240/6

o entity14_brush3
usemtl brushes/brickPBR
f  177/249/1  178/235/1  179/232/1  180/250/1
usemtl brushes/brickPBR
f  181/232/2  179/233/2  178/234/2  182/235/2
usemtl brushes/brickPBR
f  182/251/3  178/252/3  177/253/3  183/254/3
usemtl brushes/brickPBR
f  184/254/4  180/253/4  179/252/4  181/251/4
usemtl brushes/brickPBR
f  183/235/5  177/234/5  180/233/5  184/232/5
usemtl brushes/brickPBR
f  184/250/6  181/232/6  182/235/6  183/249/6

o entity14_brush4
usemtl brushes/brickPBR
f  185/255/1  186/256/1  187/250/1  188/230/1
usemtl brushes/brickPBR
f  189/232/2  187/233/2  186/257/2  190/258/2
usemtl brushes/brickPBR
f  190/254/3  186/253/3  185/237/3  191/236/3
usemtl brushes/brickPBR
f  192/236/4  188/237/4  187/253/4  189/254/4
usemtl brushes/brickPBR
f  191/258/5  185/257/5  188/233/5  192/232/5
usemtl brushes/brickPBR
f  192/230/6  189/250/6  190/256/6  191/255/6

o entity14_brush5
usemtl brushes/brickPBR
f  193/235/1  194/259/1  195/260/1  196/243/1
usemtl brushes/brickPBR
f  197/243/2  195/5/2  194/8/2  198/235/2
usemtl brushes/brickPBR
f  198/261/3  194/262/3  193/263/3  199/251/3
usemtl brushes/brickPBR
f  200/224/4  196/225/4  195/264/4  197/265/4
usemtl brushes/brickPBR
f  199/235/5  193/8/5  196/5/5  200/243/5
usemtl brushes/brickPBR
f  200/243/6  197/260/6  198/259/6  199/235/6

