mtllib test4.mtl
# vertices
v -1408 -16 -1520
v -1408 -16 64
v -1408 16 64
v -1408 16 -1520
v 64 16 64
v 64 -16 64
v 64 -16 -1520
v 64 16 -1520
v 16 16 -1520
v 16 16 64
v 16 336 64
v 16 336 -1520
v 64 336 64
v 64 16 64
v 64 16 -1520
v 64 336 -1520
v -1440 208 -1520
v -1440 208 48
v -1440 256 48
v -1440 256 -1520
v -416 256 48
v -416 208 48
v -416 208 -1520
v -416 256 -1520
v -1408 16 -1520
v -1408 16 64
v -1408 336 64
v -1408 336 -1520
v -1360 336 64
v -1360 16 64
v -1360 16 -1520
v -1360 336 -1520
v -1472 16 -1520
v -1472 16 -1472
v -1472 336 -1472
v -1472 336 -1520
v 112 336 -1472
v 112 16 -1472
v 112 16 -1520
v 112 336 -1520
v -1472 16 16
v -1472 16 64
v -1472 336 64
v -1472 336 16
v 112 336 64
v 112 16 64
v 112 16 16
v 112 336 16
v -710 16 -410
v -710 16 -166
v -710 17 -166
v -710 17 -410
v -573 17 -166
v -573 16 -166
v -573 16 -410
v -573 17 -410
v -1360 192 -1456
v -1360 192 -1360
v -1360 208 -1360
v -1360 208 -1456
v -32 208 -1360
v -32 192 -1360
v -32 192 -1456
v -32 208 -1456

# texture coordinates
vt 8.731618 -0.18382353
vt -0.36764705 -0.18382353
vt -0.36764705 0.18382353
vt 8.731618 0.18382353
vt 0.36764705 0.18382353
vt -8.088235 0.18382353
vt -8.088235 -0.18382353
vt 0.36764705 -0.18382353
vt 0.36764705 -0.7352941
vt -8.088235 -0.7352941
vt -8.088235 17.463236
vt 0.36764705 17.463236
vt -0.36764705 3.860294
vt 8.731618 3.860294
vt 0.36764705 3.860294
vt 0.09191176 3.860294
vt 0.09191176 0.18382353
vt 0.09191176 -0.7352941
vt 0.09191176 17.463236
vt 8.731618 2.389706
vt -0.2757353 2.389706
vt -0.2757353 2.9411764
vt 8.731618 2.9411764
vt -2.389706 2.9411764
vt -8.2720585 2.9411764
vt -8.2720585 2.389706
vt -2.389706 2.389706
vt -2.389706 -0.5514706
vt -8.2720585 -0.5514706
vt -8.2720585 17.463236
vt -2.389706 17.463236
vt -7.828125 3.860294
vt -8.10386 3.860294
vt -8.10386 0.18382353
vt -7.828125 0.18382353
vt -7.828125 -0.7352941
vt -8.10386 -0.7352941
vt -8.10386 17.463236
vt -7.828125 17.463236
vt -8.731618 -0.18382353
vt -8.455882 -0.18382353
vt -8.455882 -3.860294
vt -8.731618 -3.860294
vt 0.6433824 3.860294
vt -8.455882 3.860294
vt -8.455882 0.18382353
vt 0.6433824 0.18382353
vt -8.455882 1.2867647
vt -8.455882 -16.911764
vt -8.731618 -16.911764
vt -8.731618 1.2867647
vt 0.09191176 -0.18382353
vt 0.36764705 -3.860294
vt 0.09191176 -3.860294
vt 0.36764705 1.2867647
vt 0.36764705 -16.911764
vt 0.09191176 -16.911764
vt 0.09191176 1.2867647
vt 410 16
vt 166 16
vt 166 17
vt 410 17
vt -573 17
vt -710 17
vt -710 16
vt -573 16
vt -573 166
vt -710 166
vt -710 410
vt -573 410
vt 161.77777 21.333334
vt 151.11111 21.333334
vt 151.11111 23.11111
vt 161.77777 23.11111
vt -3.5555556 23.11111
vt -151.11111 23.11111
vt -151.11111 21.333334
vt -3.5555556 21.333334
vt -3.5555556 151.11111
vt -151.11111 151.11111
vt -151.11111 161.77777
vt -3.5555556 161.77777

# normals
vn -1 0 0
vn 0 0 1
vn 0 -1 -0
vn -0 1 -0
vn 0 -0 -1
vn 1 0 0

o entity0_brush0
usemtl brushes/brickPBR
f  1/1/1  2/2/1  3/3/1  4/4/1
usemtl brushes/brickPBR
f  5/5/2  3/6/2  2/7/2  6/8/2
usemtl brushes/brickPBR
f  6/9/3  2/10/3  1/11/3  7/12/3
usemtl brushes/brickPBR
f  8/12/4  4/11/4  3/10/4  5/9/4
usemtl brushes/brickPBR
f  7/8/5  1/7/5  4/6/5  8/5/5
usemtl brushes/brickPBR
f  8/4/6  5/3/6  6/2/6  7/1/6

o entity0_brush1
usemtl brushes/brickPBR
f  9/4/1  10/3/1  11/13/1  12/14/1
usemtl brushes/brickPBR
f  13/15/2  11/16/2  10/17/2  14/5/2
usemtl brushes/brickPBR
f  14/9/3  10/18/3  9/19/3  15/12/3
usemtl brushes/brickPBR
f  16/12/4  12/19/4  11/18/4  13/9/4
usemtl brushes/brickPBR
f  15/5/5  9/17/5  12/16/5  16/15/5
usemtl brushes/brickPBR
f  16/14/6  13/13/6  14/3/6  15/4/6

o entity0_brush2
usemtl brushes/brickPBR
f  17/20/1  18/21/1  19/22/1  20/23/1
usemtl brushes/brickPBR
f  21/24/2  19/25/2  18/26/2  22/27/2
usemtl brushes/brickPBR
f  22/28/3  18/29/3  17/30/3  23/31/3
usemtl brushes/brickPBR
f  24/31/4  20/30/4  19/29/4  21/28/4
usemtl brushes/brickPBR
f  23/27/5  17/26/5  20/25/5  24/24/5
usemtl brushes/brickPBR
f  24/23/6  21/22/6  22/21/6  23/20/6

o entity0_brush3
usemtl brushes/brickPBR
f  25/4/1  26/3/1  27/13/1  28/14/1
usemtl brushes/brickPBR
f  29/32/2  27/33/2  26/34/2  30/35/2
usemtl brushes/brickPBR
f  30/36/3  26/37/3  25/38/3  31/39/3
usemtl brushes/brickPBR
f  32/39/4  28/38/4  27/37/4  29/36/4
usemtl brushes/brickPBR
f  31/35/5  25/34/5  28/33/5  32/32/5
usemtl brushes/brickPBR
f  32/14/6  29/13/6  30/3/6  31/4/6

o entity0_brush4
usemtl brushes/brickPBR
f  33/40/1  34/41/1  35/42/1  36/43/1
usemtl brushes/brickPBR
f  37/44/2  35/45/2  34/46/2  38/47/2
usemtl brushes/brickPBR
f  38/48/3  34/49/3  33/50/3  39/51/3
usemtl brushes/brickPBR
f  40/51/4  36/50/4  35/49/4  37/48/4
usemtl brushes/brickPBR
f  39/47/5  33/46/5  36/45/5  40/44/5
usemtl brushes/brickPBR
f  40/43/6  37/42/6  38/41/6  39/40/6

o entity0_brush5
usemtl brushes/brickPBR
f  41/52/1  42/8/1  43/53/1  44/54/1
usemtl brushes/brickPBR
f  45/44/2  43/45/2  42/46/2  46/47/2
usemtl brushes/brickPBR
f  46/55/3  42/56/3  41/57/3  47/58/3
usemtl brushes/brickPBR
f  48/58/4  44/57/4  43/56/4  45/55/4
usemtl brushes/brickPBR
f  47/47/5  41/46/5  44/45/5  48/44/5
usemtl brushes/brickPBR
f  48/54/6  45/53/6  46/8/6  47/52/6

o entity0_brush6
usemtl brushes/mirror
f  49/59/1  50/60/1  51/61/1  52/62/1
usemtl brushes/mirror
f  53/63/2  51/64/2  50/65/2  54/66/2
usemtl brushes/mirror
f  54/67/3  50/68/3  49/69/3  55/70/3
usemtl brushes/mirror
f  56/70/4  52/69/4  51/68/4  53/67/4
usemtl brushes/mirror
f  55/66/5  49/65/5  52/64/5  56/63/5
usemtl brushes/mirror
f  56/62/6  53/61/6  54/60/6  55/59/6

o entity0_brush7
usemtl brushes/light
f  57/71/1  58/72/1  59/73/1  60/74/1
usemtl brushes/light
f  61/75/2  59/76/2  58/77/2  62/78/2
usemtl brushes/light
f  62/79/3  58/80/3  57/81/3  63/82/3
usemtl brushes/light
f  64/82/4  60/81/4  59/80/4  61/79/4
usemtl brushes/light
f  63/78/5  57/77/5  60/76/5  64/75/5
usemtl brushes/light
f  64/74/6  61/73/6  62/72/6  63/71/6

