mtllib test2.mtl
# vertices
v -352 16 -528
v -352 16 480
v -352 304 480
v -352 304 -528
v -320 304 480
v -320 16 480
v -320 16 -528
v -320 304 -528
v 512 16 -560
v 512 16 464
v 512 304 464
v 512 304 -560
v 544 304 464
v 544 16 464
v 544 16 -560
v 544 304 -560
v -352 0 -560
v -352 0 -528
v -352 304 -528
v -352 304 -560
v 544 304 -528
v 544 0 -528
v 544 0 -560
v 544 304 -560
v -976 -16 -864
v -976 -16 880
v -976 16 880
v -976 16 -864
v 1056 16 880
v 1056 -16 880
v 1056 -16 -864
v 1056 16 -864
v -552 16 680
v -552 16 800
v -552 448 800
v -552 448 680
v 736 448 800
v 736 16 800
v 736 16 680
v 736 448 680
v -848 16 -768
v -848 16 -288
v -848 272 -288
v -848 272 -768
v -608 272 -288
v -608 16 -288
v -608 16 -768
v -608 272 -768
v -320 16 144
v -320 16 160
v -320 304 160
v -320 304 144
v -144 304 160
v -144 16 160
v -144 16 144
v -144 304 144
v -320 16 -272
v -320 16 -256
v -320 304 -256
v -320 304 -272
v -144 304 -256
v -144 16 -256
v -144 16 -272
v -144 304 -272
v -320 288 -256
v -320 288 144
v -320 304 144
v -320 304 -256
v -144 304 144
v -144 288 144
v -144 288 -256
v -144 304 -256
v -160 16 -0
v -160 16 144
v -160 288 144
v -160 288 -0
v -144 288 144
v -144 16 144
v -144 16 -0
v -144 288 -0
v -160 16 -256
v -160 16 -112
v -160 288 -112
v -160 288 -256
v -144 288 -112
v -144 16 -112
v -144 16 -256
v -144 288 -256
v -160 160 -128
v -160 160 -0
v -160 288 -0
v -160 288 -128
v -144 288 -0
v -144 160 -0
v -144 160 -128
v -144 288 -128
v -104 16 176
v -104 16 384
v -104 216 384
v -104 216 176
v 248 216 384
v 248 16 384
v 248 16 176
v 248 216 176

# texture coordinates
vt 6.8749995 0.20833333
vt -6.2499995 0.20833333
vt -6.2499995 3.9583333
vt 6.8749995 3.9583333
vt -4.1666665 3.9583333
vt -4.583333 3.9583333
vt -4.583333 0.20833333
vt -4.1666665 0.20833333
vt -4.1666665 -6.2499995
vt -4.583333 -6.2499995
vt -4.583333 6.8749995
vt -4.1666665 6.8749995
vt 7.2916665 0.20833333
vt -6.0416665 0.20833333
vt -6.0416665 3.9583333
vt 7.2916665 3.9583333
vt 7.083333 3.9583333
vt 6.6666665 3.9583333
vt 6.6666665 0.20833333
vt 7.083333 0.20833333
vt 7.083333 -6.0416665
vt 6.6666665 -6.0416665
vt 6.6666665 7.2916665
vt 7.083333 7.2916665
vt 7.2916665 -0
vt 6.8749995 -0
vt -4.583333 -0
vt 7.083333 -0
vt 7.083333 6.8749995
vt -4.583333 7.2916665
vt 864 -16
vt -880 -16
vt -880 16
vt 864 16
vt 1056 16
vt -976 16
vt -976 -16
vt 1056 -16
vt 1056 -880
vt -976 -880
vt -976 864
vt 1056 864
vt 4.125 3.375
vt -3.8125 3.375
vt -3.8125 -3.4375
vt 4.125 -3.4375
vt 3.375 0.0625
vt -3.4375 0.0625
vt -3.4375 -0.0625
vt 3.375 -0.0625
vt -10.625 0.25
vt -12.5 0.25
vt -12.5 7
vt -10.625 7
vt 11.5 7
vt -8.625 7
vt -8.625 0.25
vt 11.5 0.25
vt 11.5 -12.5
vt -8.625 -12.5
vt -8.625 -10.625
vt 11.5 -10.625
vt 12 0.25
vt 4.5 0.25
vt 4.5 4.25
vt 12 4.25
vt -9.5 4.25
vt -13.25 4.25
vt -13.25 0.25
vt -9.5 0.25
vt -9.5 4.5
vt -13.25 4.5
vt -13.25 12
vt -9.5 12
vt -2.25 0.25
vt -2.5 0.25
vt -2.5 4.75
vt -2.25 4.75
vt -5 4.75
vt -5 0.25
vt -2.25 -2.5
vt -5 -2.5
vt -5 -2.25
vt -2.25 -2.25
vt 4.25 0.25
vt 4 0.25
vt 4 4.75
vt 4.25 4.75
vt -2.25 4
vt -5 4
vt -5 4.25
vt -2.25 4.25
vt 4.5 -4
vt 4.5 2.25
vt 4.75 2.25
vt 4.75 -4
vt 4.75 5
vt 4.5 5
vt -2.25 2.25
vt -2.25 5
vt 4 5
vt 4 2.25
vt 0 0.25
vt -2.25 4.5
vt 0 4.5
vt -2.5 4.5
vt -2.5 -2.25
vt -2.5 -0
vt -2.25 -0
vt 1.75 0.25
vt 1.75 4.5
vt 4 4.5
vt -2.25 1.75
vt -2.5 1.75
vt -2.5 4
vt 2 2.5
vt 0 2.5
vt 2 4.5
vt -2.5 2.5
vt -2.25 2.5
vt -2.5 2
vt -2.25 2
vt -0.6875 0.0625
vt -1.5 0.0625
vt -1.5 0.84375
vt -0.6875 0.84375
vt 0.96875 0.84375
vt -0.40625 0.84375
vt -0.40625 0.0625
vt 0.96875 0.0625
vt 0.96875 -1.5
vt -0.40625 -1.5
vt -0.40625 -0.6875
vt 0.96875 -0.6875

# normals
vn -1 0 -0
vn -0 0 1
vn 0 -1 0
vn 0 1 -0
vn 0 0 -1
vn 1 0 -0

o entity0_brush0
usemtl brushes/bricks
f  1/1/1  2/2/1  3/3/1  4/4/1
usemtl brushes/bricks
f  5/5/2  3/6/2  2/7/2  6/8/2
usemtl brushes/bricks
f  6/9/3  2/10/3  1/11/3  7/12/3
usemtl brushes/bricks
f  8/12/4  4/11/4  3/10/4  5/9/4
usemtl brushes/bricks
f  7/8/5  1/7/5  4/6/5  8/5/5
usemtl brushes/bricks
f  8/4/6  5/3/6  6/2/6  7/1/6

o entity0_brush1
usemtl brushes/bricks
f  9/13/1  10/14/1  11/15/1  12/16/1
usemtl brushes/bricks
f  13/17/2  11/18/2  10/19/2  14/20/2
usemtl brushes/bricks
f  14/21/3  10/22/3  9/23/3  15/24/3
usemtl brushes/bricks
f  16/24/4  12/23/4  11/22/4  13/21/4
usemtl brushes/bricks
f  15/20/5  9/19/5  12/18/5  16/17/5
usemtl brushes/bricks
f  16/16/6  13/15/6  14/14/6  15/13/6

o entity0_brush2
usemtl brushes/bricks
f  17/25/1  18/26/1  19/4/1  20/16/1
usemtl brushes/bricks
f  21/17/2  19/6/2  18/27/2  22/28/2
usemtl brushes/bricks
f  22/29/3  18/11/3  17/30/3  23/24/3
usemtl brushes/bricks
f  24/24/4  20/30/4  19/11/4  21/29/4
usemtl brushes/bricks
f  23/28/5  17/27/5  20/6/5  24/17/5
usemtl brushes/bricks
f  24/16/6  21/4/6  22/26/6  23/25/6

o entity0_brush3
usemtl __TB_empty
f  25/31/1  26/32/1  27/33/1  28/34/1
usemtl __TB_empty
f  29/35/2  27/36/2  26/37/2  30/38/2
usemtl __TB_empty
f  30/39/3  26/40/3  25/41/3  31/42/3
usemtl brushes/grass
f  32/43/4  28/44/4  27/45/4  29/46/4
usemtl __TB_empty
f  31/38/5  25/37/5  28/36/5  32/35/5
usemtl brushes/grass
f  32/47/6  29/48/6  30/49/6  31/50/6

o entity0_brush4
usemtl brushes/bricks
f  33/51/1  34/52/1  35/53/1  36/54/1
usemtl brushes/bricks
f  37/55/2  35/56/2  34/57/2  38/58/2
usemtl brushes/bricks
f  38/59/3  34/60/3  33/61/3  39/62/3
usemtl brushes/bricks
f  40/62/4  36/61/4  35/60/4  37/59/4
usemtl brushes/bricks
f  39/58/5  33/57/5  36/56/5  40/55/5
usemtl brushes/bricks
f  40/54/6  37/53/6  38/52/6  39/51/6

o entity0_brush5
usemtl brushes/bricks
f  41/63/1  42/64/1  43/65/1  44/66/1
usemtl brushes/bricks
f  45/67/2  43/68/2  42/69/2  46/70/2
usemtl brushes/bricks
f  46/71/3  42/72/3  41/73/3  47/74/3
usemtl brushes/bricks
f  48/74/4  44/73/4  43/72/4  45/71/4
usemtl brushes/bricks
f  47/70/5  41/69/5  44/68/5  48/67/5
usemtl brushes/bricks
f  48/66/6  45/65/6  46/64/6  47/63/6

o entity0_brush6
usemtl brushes/bricks
f  49/75/1  50/76/1  51/77/1  52/78/1
usemtl brushes/bricks
f  53/78/2  51/79/2  50/80/2  54/75/2
usemtl brushes/bricks
f  54/81/3  50/82/3  49/83/3  55/84/3
usemtl brushes/bricks
f  56/84/4  52/83/4  51/82/4  53/81/4
usemtl brushes/bricks
f  55/75/5  49/80/5  52/79/5  56/78/5
usemtl brushes/bricks
f  56/78/6  53/77/6  54/76/6  55/75/6

o entity0_brush7
usemtl brushes/bricks
f  57/85/1  58/86/1  59/87/1  60/88/1
usemtl brushes/bricks
f  61/78/2  59/79/2  58/80/2  62/75/2
usemtl brushes/bricks
f  62/89/3  58/90/3  57/91/3  63/92/3
usemtl brushes/bricks
f  64/92/4  60/91/4  59/90/4  61/89/4
usemtl brushes/bricks
f  63/75/5  57/80/5  60/79/5  64/78/5
usemtl brushes/bricks
f  64/88/6  61/87/6  62/86/6  63/85/6

o entity0_brush8
usemtl brushes/bricks
f  65/93/1  66/94/1  67/95/1  68/96/1
usemtl brushes/bricks
f  69/95/2  67/97/2  66/98/2  70/94/2
usemtl brushes/bricks
f  70/99/3  66/100/3  65/101/3  71/102/3
usemtl brushes/bricks
f  72/102/4  68/101/4  67/100/4  69/99/4
usemtl brushes/bricks
f  71/94/5  65/98/5  68/97/5  72/95/5
usemtl brushes/bricks
f  72/96/6  69/95/6  70/94/6  71/93/6

o entity0_brush9
usemtl brushes/bricks
f  73/103/1  74/75/1  75/104/1  76/105/1
usemtl brushes/bricks
f  77/104/2  75/106/2  74/76/2  78/75/2
usemtl brushes/bricks
f  78/84/3  74/107/3  73/108/3  79/109/3
usemtl brushes/bricks
f  80/109/4  76/108/4  75/107/4  77/84/4
usemtl brushes/bricks
f  79/75/5  73/76/5  76/106/5  80/104/5
usemtl brushes/bricks
f  80/105/6  77/104/6  78/75/6  79/103/6

o entity0_brush10
usemtl brushes/bricks
f  81/86/1  82/110/1  83/111/1  84/112/1
usemtl brushes/bricks
f  85/104/2  83/106/2  82/76/2  86/75/2
usemtl brushes/bricks
f  86/113/3  82/114/3  81/115/3  87/89/3
usemtl brushes/bricks
f  88/89/4  84/115/4  83/114/4  85/113/4
usemtl brushes/bricks
f  87/75/5  81/76/5  84/106/5  88/104/5
usemtl brushes/bricks
f  88/112/6  85/111/6  86/110/6  87/86/6

o entity0_brush11
usemtl brushes/bricks
f  89/116/1  90/117/1  91/105/1  92/118/1
usemtl brushes/bricks
f  93/104/2  91/106/2  90/119/2  94/120/2
usemtl brushes/bricks
f  94/109/3  90/108/3  89/121/3  95/122/3
usemtl brushes/bricks
f  96/122/4  92/121/4  91/108/4  93/109/4
usemtl brushes/bricks
f  95/120/5  89/119/5  92/106/5  96/104/5
usemtl brushes/bricks
f  96/118/6  93/105/6  94/117/6  95/116/6

o entity3_brush0
usemtl brushes/trigger
f  97/123/1  98/124/1  99/125/1  100/126/1
usemtl brushes/trigger
f  101/127/2  99/128/2  98/129/2  102/130/2
usemtl brushes/trigger
f  102/131/3  98/132/3  97/133/3  103/134/3
usemtl brushes/trigger
f  104/134/4  100/133/4  99/132/4  101/131/4
usemtl brushes/trigger
f  103/130/5  97/129/5  100/128/5  104/127/5
usemtl brushes/trigger
f  104/126/6  101/125/6  102/124/6  103/123/6

