mtllib test5.mtl
# vertices
v -352 16 -528
v -352 16 480
v -352 304 480
v -352 304 -528
v -320 304 480
v -320 16 480
v -320 16 -528
v -320 304 -528
v 512 16 -560
v 512 16 464
v 512 304 464
v 512 304 -560
v 544 304 464
v 544 16 464
v 544 16 -560
v 544 304 -560
v -352 0 -560
v -352 0 -528
v -352 304 -528
v -352 304 -560
v 544 304 -528
v 544 0 -528
v 544 0 -560
v 544 304 -560
v -552 16 680
v -552 16 800
v -552 448 800
v -552 448 680
v 736 448 800
v 736 16 800
v 736 16 680
v 736 448 680
v -896 208 -768
v -896 208 -288
v -896 272 -288
v -896 272 -768
v -608 272 -288
v -608 208 -288
v -608 208 -768
v -608 272 -768
v -320 16 144
v -320 16 192
v -320 304 192
v -320 304 144
v -144 304 192
v -144 16 192
v -144 16 144
v -144 304 144
v -320 16 -304
v -320 16 -256
v -320 304 -256
v -320 304 -304
v -144 304 -256
v -144 16 -256
v -144 16 -304
v -144 304 -304
v -320 288 -256
v -320 288 144
v -320 304 144
v -320 304 -256
v -144 304 144
v -144 288 144
v -144 288 -256
v -144 304 -256
v -160 16 -0
v -160 16 144
v -160 288 144
v -160 288 -0
v -144 288 144
v -144 16 144
v -144 16 -0
v -144 288 -0
v -160 16 -256
v -160 16 -112
v -160 288 -112
v -160 288 -256
v -144 288 -112
v -144 16 -112
v -144 16 -256
v -144 288 -256
v -160 160 -112
v -160 160 -0
v -160 288 -0
v -160 288 -112
v -144 288 -0
v -144 160 -0
v -144 160 -112
v -144 288 -112
v -1456 -16 -864
v -1456 -16 880
v -1456 16 880
v -1456 16 -864
v 1056 16 880
v 1056 -16 880
v 1056 -16 -864
v 1056 16 -864
v -1456 16 -544
v -1456 16 -304
v -1456 64 -304
v -1456 64 -544
v -1120 16 -288
v -1216 64 -304
v -992 16 -288
v -992 16 -400
v -1200 16 -544
v -1216 64 -544
v -1792 16 -544
v -1792 16 -304
v -1792 64 -304
v -1792 64 -544
v -1456 64 -304
v -1456 16 -304
v -1456 16 -544
v -1456 64 -544
v -1792 16 -304
v -1792 16 32
v -1792 64 32
v -1792 64 -304
v -1568 64 32
v -1568 16 32
v -1568 16 -304
v -1568 64 -304
v -1568 16 -304
v -1568 16 32
v -1568 96 32
v -1568 96 -304
v -1552 96 32
v -1552 16 32
v -1552 16 -304
v -1552 96 -304
v -1552 16 -304
v -1552 16 -288
v -1552 96 -288
v -1552 96 -304
v -1056 96 -288
v -1056 16 -288
v -1056 16 -304
v -1056 96 -304
v -896 16 -768
v -896 16 -720
v -896 224 -720
v -896 224 -768
v -608 224 -720
v -608 16 -720
v -608 16 -768
v -608 224 -768
v -896 16 -720
v -896 16 -480
v -896 224 -480
v -896 224 -720
v -880 224 -480
v -880 16 -480
v -880 16 -720
v -880 224 -720
v -624 16 -720
v -624 16 -480
v -624 224 -480
v -624 224 -720
v -608 224 -480
v -608 16 -480
v -608 16 -720
v -608 224 -720
v -104 16 176
v -104 16 384
v -104 216 384
v -104 216 176
v 248 216 384
v 248 16 384
v 248 16 176
v 248 216 176
v -144 82.61011441567553 -116.66737769936663
v -144 106.22626657837827 17.26647671028877
v -144 125.92242163862244 13.793513156950151
v -144 102.30626947591668 -120.14034125270962
v -140 125.92242163862244 13.793513156950151
v -140 106.22626657837827 17.26647671028877
v -140 82.61011441567553 -116.66737769936663
v -140 102.30626947591668 -120.14034125270962
v -144 49.972254129734665 -120.78710838321058
v -144 38.11907311605319 14.69537055726505
v -144 58.04296707789035 16.438485412218142
v -144 69.89614809157152 -119.04399352825774
v -140 58.04296707789035 16.438485412218142
v -140 38.11907311605319 14.69537055726505
v -140 69.89614809157152 -119.04399352825774
v -140 49.972254129734665 -120.78710838321058

# texture coordinates
vt 11 0.33333334
vt -10 0.33333334
vt -10 6.3333335
vt 11 6.3333335
vt -6.6666665 6.3333335
vt -7.3333335 6.3333335
vt -7.3333335 0.33333334
vt -6.6666665 0.33333334
vt -6.6666665 -10
vt -7.3333335 -10
vt -7.3333335 11
vt -6.6666665 11
vt 11.666667 0.33333334
vt -9.666667 0.33333334
vt -9.666667 6.3333335
vt 11.666667 6.3333335
vt 11.333333 6.3333335
vt 10.666667 6.3333335
vt 10.666667 0.33333334
vt 11.333333 0.33333334
vt 11.333333 -9.666667
vt 10.666667 -9.666667
vt 10.666667 11.666667
vt 11.333333 11.666667
vt 11.666667 -0
vt 11 -0
vt -7.3333335 -0
vt 11.333333 -0
vt 11.333333 11
vt -7.3333335 11.666667
vt -14.166667 0.33333334
vt -16.666666 0.33333334
vt -16.666666 9.333333
vt -14.166667 9.333333
vt 15.333333 9.333333
vt -11.5 9.333333
vt -11.5 0.33333334
vt 15.333333 0.33333334
vt 15.333333 -16.666666
vt -11.5 -16.666666
vt -11.5 -14.166667
vt 15.333333 -14.166667
vt 16 4.3333335
vt 6 4.3333335
vt 6 5.6666665
vt 16 5.6666665
vt -12.666667 5.6666665
vt -18.666666 5.6666665
vt -18.666666 4.3333335
vt -12.666667 4.3333335
vt -12.666667 6
vt -18.666666 6
vt -18.666666 16
vt -12.666667 16
vt -3 0.33333334
vt -4 0.33333334
vt -4 6.3333335
vt -3 6.3333335
vt -3 -4
vt -6.6666665 -4
vt -6.6666665 -3
vt -3 -3
vt -3 3
vt -3 6.6666665
vt -4 6.6666665
vt -4 3
vt 6.3333335 0.33333334
vt 5.3333335 0.33333334
vt 5.3333335 6.3333335
vt 6.3333335 6.3333335
vt -3 5.3333335
vt -6.6666665 5.3333335
vt -19.666666 7.666667
vt -19.666666 4.0000005
vt -18.666666 4.0000005
vt -18.666666 7.666667
vt 6 -5.3333335
vt 6 3
vt 6.3333335 3
vt 6.3333335 -5.3333335
vt 6.3333335 6.6666665
vt 6 6.6666665
vt 5.3333335 6.6666665
vt 5.3333335 3
vt 0 0.33333334
vt -3 6
vt 0 6
vt -3.3333333 6
vt -3.3333333 0.33333334
vt -3.3333333 -3
vt -3.3333333 -0
vt -3 -0
vt 2.3333333 0.33333334
vt 2.3333333 6
vt 5.3333335 6
vt -3 2.3333333
vt -3.3333333 2.3333333
vt -3.3333333 5.3333335
vt 2.3333333 3.3333333
vt 0 3.3333333
vt -3.3333333 3.3333333
vt -3 3.3333333
vt 864 -16
vt -880 -16
vt -880 16
vt 864 16
vt 1056 16
vt -1456 16
vt -1456 -16
vt 1056 -16
vt 1056 -880
vt -1456 -880
vt -1456 864
vt 1056 864
vt 4.125 3.375
vt -5.6875 3.375
vt -5.6875 -3.4375
vt 4.125 -3.4375
vt 3.375 0.0625
vt -3.4375 0.0625
vt -3.4375 -0.0625
vt 3.375 -0.0625
vt 17 0.5
vt 9.5 0.5
vt 9.5 2
vt 17 2
vt -35 0.5
vt -45.5 2
vt -45.5 0.5
vt -38 2
vt -31 0.5
vt -31 12.5
vt -31 9
vt -35 9
vt -45.5 9.5
vt -45.5 17
vt -37.5 17
vt -38 17
vt -38 9.5
vt -37.5 0.5
vt -56 2
vt -56 0.5
vt -56 9.5
vt -56 17
vt -1 0.5
vt -1 2
vt -49 2
vt -49 0.5
vt -49 -1
vt -56 -1
vt -49 9.5
vt -1 3
vt 9.5 3
vt -48.5 3
vt -49 3
vt -48.5 0.5
vt -48.5 -1
vt -48.5 9.5
vt 9 0.5
vt 9 3
vt -33 3
vt -33 0.5
vt -33 9
vt -48.5 9
vt -33 9.5
vt 16 0.33333334
vt 15 0.33333334
vt 15 4.6666665
vt 16 4.6666665
vt -12.666667 4.6666665
vt -18.666666 4.6666665
vt -18.666666 0.33333334
vt -12.666667 0.33333334
vt -12.666667 15
vt -18.666666 15
vt 10 0.33333334
vt 10 4.6666665
vt -18.333334 4.6666665
vt -18.333334 0.33333334
vt -18.333334 10
vt -18.666666 10
vt -18.333334 15
vt -13 4.6666665
vt -13 0.33333334
vt -12.666667 10
vt -13 10
vt -13 15
vt -0.6875 0.0625
vt -1.5 0.0625
vt -1.5 0.84375
vt -0.6875 0.84375
vt 0.96875 0.84375
vt -0.40625 0.84375
vt -0.40625 0.0625
vt 0.96875 0.0625
vt 0.96875 -1.5
vt -0.40625 -1.5
vt -0.40625 -0.6875
vt 0.96875 -0.6875
vt 3.647504 2.56272
vt -0.6024958 2.5627189
vt -0.602496 3.1877189
vt 3.647504 3.18772
vt -4.375 3.9350758
vt -4.5 3.9350758
vt -4.5 3.3195708
vt -4.375 3.3195708
vt -4.375 -0.5395774
vt -4.5 -0.5395774
vt -4.5 3.6458557
vt -4.375 3.6458557
vt -4.375 3.7543857
vt -4.5 3.7543857
vt -4.5 -0.4310473
vt -4.375 -0.4310473
vt -4.375 2.581566
vt -4.5 2.581566
vt -4.5 3.1970708
vt -4.375 3.1970708
vt 3.5822697 3.9333584
vt -0.66773033 3.9333591
vt -0.66773045 3.3083591
vt 3.5822697 3.3083584
vt 3.8068802 1.5602231
vt -0.4431197 1.5602208
vt -0.44312003 2.1852207
vt 3.80688 2.185223
vt -4.375 1.8138428
vt -4.5 1.8138428
vt -4.5 1.191221
vt -4.375 1.191221
vt -4.375 3.7201247
vt -4.5 3.7201247
vt -4.5 -0.5137027
vt -4.375 -0.5137027
vt -4.375 -0.45923033
vt -4.5 -0.45923033
vt -4.5 3.7745972
vt -4.375 3.7745972
vt -4.375 1.561633
vt -4.5 1.561633
vt -4.5 2.1842546
vt -4.375 2.1842546
vt -0.45943773 1.8114733
vt -0.4594375 1.1864733
vt 3.7905626 1.186475
vt 3.7905624 1.811475

# normals
vn -1 0 -0
vn -0 0 1
vn 0 -1 0
vn 0 1 -0
vn 0 0 -1
vn 1 0 -0
vn -0.04756514941544941 0 0.9988681377244376
vn 0 0.31622776601683794 0.9486832980505139
vn 0.20952908873087348 0.9778024140774095 -0
vn 0.5592327894010801 0.18641092980036003 -0.8077806958015601
vn 0 0.17364817766693086 0.9848077530122079
vn 0 -0.9848077530122078 0.1736481776669317
vn 0 0.9848077530122038 -0.17364817766695398
vn 0 -0.17364817766691928 -0.98480775301221
vn -0 -0.08715574274765693 0.9961946980917457
vn 0 0.9961946980917458 0.08715574274765668
vn 0 -0.9961946980917458 -0.08715574274765668
vn 0 0.08715574274765675 -0.9961946980917457

o entity0_brush0
usemtl brushes/bricks
f  1/1/1  2/2/1  3/3/1  4/4/1
usemtl brushes/bricks
f  5/5/2  3/6/2  2/7/2  6/8/2
usemtl brushes/bricks
f  6/9/3  2/10/3  1/11/3  7/12/3
usemtl brushes/bricks
f  8/12/4  4/11/4  3/10/4  5/9/4
usemtl brushes/bricks
f  7/8/5  1/7/5  4/6/5  8/5/5
usemtl brushes/bricks
f  8/4/6  5/3/6  6/2/6  7/1/6

o entity0_brush1
usemtl brushes/bricks
f  9/13/1  10/14/1  11/15/1  12/16/1
usemtl brushes/bricks
f  13/17/2  11/18/2  10/19/2  14/20/2
usemtl brushes/bricks
f  14/21/3  10/22/3  9/23/3  15/24/3
usemtl brushes/bricks
f  16/24/4  12/23/4  11/22/4  13/21/4
usemtl brushes/bricks
f  15/20/5  9/19/5  12/18/5  16/17/5
usemtl brushes/bricks
f  16/16/6  13/15/6  14/14/6  15/13/6

o entity0_brush2
usemtl brushes/bricks
f  17/25/1  18/26/1  19/4/1  20/16/1
usemtl brushes/bricks
f  21/17/2  19/6/2  18/27/2  22/28/2
usemtl brushes/bricks
f  22/29/3  18/11/3  17/30/3  23/24/3
usemtl brushes/bricks
f  24/24/4  20/30/4  19/11/4  21/29/4
usemtl brushes/bricks
f  23/28/5  17/27/5  20/6/5  24/17/5
usemtl brushes/bricks
f  24/16/6  21/4/6  22/26/6  23/25/6

o entity0_brush3
usemtl brushes/bricks
f  25/31/1  26/32/1  27/33/1  28/34/1
usemtl brushes/bricks
f  29/35/2  27/36/2  26/37/2  30/38/2
usemtl brushes/bricks
f  30/39/3  26/40/3  25/41/3  31/42/3
usemtl brushes/bricks
f  32/42/4  28/41/4  27/40/4  29/39/4
usemtl brushes/bricks
f  31/38/5  25/37/5  28/36/5  32/35/5
usemtl brushes/bricks
f  32/34/6  29/33/6  30/32/6  31/31/6

o entity0_brush4
usemtl brushes/bricks
f  33/43/1  34/44/1  35/45/1  36/46/1
usemtl brushes/bricks
f  37/47/2  35/48/2  34/49/2  38/50/2
usemtl brushes/bricks
f  38/51/3  34/52/3  33/53/3  39/54/3
usemtl brushes/bricks
f  40/54/4  36/53/4  35/52/4  37/51/4
usemtl brushes/bricks
f  39/50/5  33/49/5  36/48/5  40/47/5
usemtl brushes/bricks
f  40/46/6  37/45/6  38/44/6  39/43/6

o entity0_brush5
usemtl brushes/bricks
f  41/55/1  42/56/1  43/57/1  44/58/1
usemtl brushes/bricks
f  45/58/2  43/5/2  42/8/2  46/55/2
usemtl brushes/bricks
f  46/59/3  42/60/3  41/61/3  47/62/3
usemtl brushes/bricks
f  48/63/4  44/64/4  43/65/4  45/66/4
usemtl brushes/bricks
f  47/55/5  41/8/5  44/5/5  48/58/5
usemtl brushes/bricks
f  48/58/6  45/57/6  46/56/6  47/55/6

o entity0_brush6
usemtl brushes/bricks
f  49/67/1  50/68/1  51/69/1  52/70/1
usemtl brushes/bricks
f  53/58/2  51/5/2  50/8/2  54/55/2
usemtl brushes/bricks
f  54/71/3  50/72/3  49/5/3  55/58/3
usemtl brushes/bricks
f  56/73/4  52/74/4  51/75/4  53/76/4
usemtl brushes/bricks
f  55/55/5  49/8/5  52/5/5  56/58/5
usemtl brushes/bricks
f  56/70/6  53/69/6  54/68/6  55/67/6

o entity0_brush7
usemtl brushes/bricks
f  57/77/1  58/78/1  59/79/1  60/80/1
usemtl brushes/bricks
f  61/79/2  59/81/2  58/82/2  62/78/2
usemtl brushes/bricks
f  62/63/3  58/64/3  57/83/3  63/84/3
usemtl brushes/bricks
f  64/84/4  60/83/4  59/64/4  61/63/4
usemtl brushes/bricks
f  63/78/5  57/82/5  60/81/5  64/79/5
usemtl brushes/bricks
f  64/80/6  61/79/6  62/78/6  63/77/6

o entity0_brush8
usemtl brushes/bricks
f  65/85/1  66/55/1  67/86/1  68/87/1
usemtl brushes/bricks
f  69/86/2  67/88/2  66/89/2  70/55/2
usemtl brushes/bricks
f  70/62/3  66/90/3  65/91/3  71/92/3
usemtl brushes/bricks
f  72/92/4  68/91/4  67/90/4  69/62/4
usemtl brushes/bricks
f  71/55/5  65/89/5  68/88/5  72/86/5
usemtl brushes/bricks
f  72/87/6  69/86/6  70/55/6  71/85/6

o entity0_brush9
usemtl brushes/bricks
f  73/68/1  74/93/1  75/94/1  76/95/1
usemtl brushes/bricks
f  77/86/2  75/88/2  74/89/2  78/55/2
usemtl brushes/bricks
f  78/96/3  74/97/3  73/98/3  79/71/3
usemtl brushes/bricks
f  80/71/4  76/98/4  75/97/4  77/96/4
usemtl brushes/bricks
f  79/55/5  73/89/5  76/88/5  80/86/5
usemtl brushes/bricks
f  80/95/6  77/94/6  78/93/6  79/68/6

o entity0_brush10
usemtl brushes/bricks
f  81/99/1  82/100/1  83/87/1  84/94/1
usemtl brushes/bricks
f  85/86/2  83/88/2  82/101/2  86/102/2
usemtl brushes/bricks
f  86/92/3  82/91/3  81/97/3  87/96/3
usemtl brushes/bricks
f  88/96/4  84/97/4  83/91/4  85/92/4
usemtl brushes/bricks
f  87/102/5  81/101/5  84/88/5  88/86/5
usemtl brushes/bricks
f  88/94/6  85/87/6  86/100/6  87/99/6

o entity0_brush11
usemtl __TB_empty
f  89/103/1  90/104/1  91/105/1  92/106/1
usemtl __TB_empty
f  93/107/2  91/108/2  90/109/2  94/110/2
usemtl __TB_empty
f  94/111/3  90/112/3  89/113/3  95/114/3
usemtl brushes/grass
f  96/115/4  92/116/4  91/117/4  93/118/4
usemtl __TB_empty
f  95/110/5  89/109/5  92/108/5  96/107/5
usemtl brushes/grass
f  96/119/6  93/120/6  94/121/6  95/122/6

o entity0_brush12
usemtl brushes/__TB_empty
f  97/123/1  98/124/1  99/125/1  100/126/1
usemtl brushes/__TB_empty
f  101/127/7  99/128/7  98/129/7
usemtl brushes/__TB_empty
f  102/130/8  99/128/8  101/127/8  103/131/8
usemtl brushes/__TB_empty
f  104/132/3  103/133/3  101/134/3  98/135/3  97/136/3  105/137/3
usemtl brushes/__TB_empty
f  106/138/4  100/136/4  99/135/4  102/139/4
usemtl brushes/__TB_empty
f  105/140/5  97/129/5  100/128/5  106/130/5
usemtl brushes/__TB_empty
f  106/138/9  102/139/9  103/133/9  104/132/9
usemtl brushes/__TB_empty
f  105/140/10  106/130/10  104/131/10

o entity0_brush13
usemtl brushes/__TB_empty
f  107/123/1  108/124/1  109/125/1  110/126/1
usemtl brushes/__TB_empty
f  111/128/2  109/141/2  108/142/2  112/129/2
usemtl brushes/__TB_empty
f  112/135/3  108/143/3  107/144/3  113/136/3
usemtl brushes/__TB_empty
f  114/136/4  110/144/4  109/143/4  111/135/4
usemtl brushes/__TB_empty
f  113/129/5  107/142/5  110/141/5  114/128/5
usemtl brushes/__TB_empty
f  114/126/6  111/125/6  112/124/6  113/123/6

o entity0_brush14
usemtl brushes/__TB_empty
f  115/124/1  116/145/1  117/146/1  118/125/1
usemtl brushes/__TB_empty
f  119/147/2  117/141/2  116/142/2  120/148/2
usemtl brushes/__TB_empty
f  120/149/3  116/150/3  115/143/3  121/151/3
usemtl brushes/__TB_empty
f  122/151/4  118/143/4  117/150/4  119/149/4
usemtl brushes/__TB_empty
f  121/148/5  115/142/5  118/141/5  122/147/5
usemtl brushes/__TB_empty
f  122/125/6  119/146/6  120/145/6  121/124/6

o entity0_brush15
usemtl brushes/__TB_empty
f  123/124/1  124/145/1  125/152/1  126/153/1
usemtl brushes/__TB_empty
f  127/154/2  125/155/2  124/148/2  128/156/2
usemtl brushes/__TB_empty
f  128/157/3  124/149/3  123/151/3  129/158/3
usemtl brushes/__TB_empty
f  130/158/4  126/151/4  125/149/4  127/157/4
usemtl brushes/__TB_empty
f  129/156/5  123/148/5  126/155/5  130/154/5
usemtl brushes/__TB_empty
f  130/153/6  127/152/6  128/145/6  129/124/6

o entity0_brush16
usemtl brushes/__TB_empty
f  131/124/1  132/159/1  133/160/1  134/153/1
usemtl brushes/__TB_empty
f  135/161/2  133/154/2  132/156/2  136/162/2
usemtl brushes/__TB_empty
f  136/163/3  132/164/3  131/158/3  137/165/3
usemtl brushes/__TB_empty
f  138/165/4  134/158/4  133/164/4  135/163/4
usemtl brushes/__TB_empty
f  137/162/5  131/156/5  134/154/5  138/161/5
usemtl brushes/__TB_empty
f  138/153/6  135/160/6  136/159/6  137/124/6

o entity0_brush17
usemtl brushes/bricks
f  139/166/1  140/167/1  141/168/1  142/169/1
usemtl brushes/bricks
f  143/170/2  141/171/2  140/172/2  144/173/2
usemtl brushes/bricks
f  144/174/3  140/175/3  139/53/3  145/54/3
usemtl brushes/bricks
f  146/54/4  142/53/4  141/175/4  143/174/4
usemtl brushes/bricks
f  145/173/5  139/172/5  142/171/5  146/170/5
usemtl brushes/bricks
f  146/169/6  143/168/6  144/167/6  145/166/6

o entity0_brush18
usemtl brushes/bricks
f  147/167/1  148/176/1  149/177/1  150/168/1
usemtl brushes/bricks
f  151/178/2  149/171/2  148/172/2  152/179/2
usemtl brushes/bricks
f  152/180/3  148/181/3  147/175/3  153/182/3
usemtl brushes/bricks
f  154/182/4  150/175/4  149/181/4  151/180/4
usemtl brushes/bricks
f  153/179/5  147/172/5  150/171/5  154/178/5
usemtl brushes/bricks
f  154/168/6  151/177/6  152/176/6  153/167/6

o entity0_brush19
usemtl brushes/bricks
f  155/167/1  156/176/1  157/177/1  158/168/1
usemtl brushes/bricks
f  159/170/2  157/183/2  156/184/2  160/173/2
usemtl brushes/bricks
f  160/185/3  156/186/3  155/187/3  161/174/3
usemtl brushes/bricks
f  162/174/4  158/187/4  157/186/4  159/185/4
usemtl brushes/bricks
f  161/173/5  155/184/5  158/183/5  162/170/5
usemtl brushes/bricks
f  162/168/6  159/177/6  160/176/6  161/167/6

o entity3_brush0
usemtl brushes/trigger_t
f  163/188/1  164/189/1  165/190/1  166/191/1
usemtl brushes/trigger_t
f  167/192/2  165/193/2  164/194/2  168/195/2
usemtl brushes/trigger_t
f  168/196/3  164/197/3  163/198/3  169/199/3
usemtl brushes/trigger_t
f  170/199/4  166/198/4  165/197/4  167/196/4
usemtl brushes/trigger_t
f  169/195/5  163/194/5  166/193/5  170/192/5
usemtl brushes/trigger_t
f  170/191/6  167/190/6  168/189/6  169/188/6

o entity8_brush0
usemtl brushes/__TB_empty
f  171/200/1  172/201/1  173/202/1  174/203/1
usemtl brushes/__TB_empty
f  175/204/11  173/205/11  172/206/11  176/207/11
usemtl brushes/__TB_empty
f  176/208/12  172/209/12  171/210/12  177/211/12
usemtl brushes/__TB_empty
f  178/212/13  174/213/13  173/214/13  175/215/13
usemtl brushes/__TB_empty
f  177/216/14  171/217/14  174/218/14  178/219/14
usemtl brushes/__TB_empty
f  178/220/6  175/221/6  176/222/6  177/223/6

o entity9_brush0
usemtl brushes/__TB_empty
f  179/224/1  180/225/1  181/226/1  182/227/1
usemtl brushes/__TB_empty
f  183/228/15  181/229/15  180/230/15  184/231/15
usemtl brushes/__TB_empty
f  185/232/16  182/233/16  181/234/16  183/235/16
usemtl brushes/__TB_empty
f  184/236/17  180/237/17  179/238/17  186/239/17
usemtl brushes/__TB_empty
f  186/240/18  179/241/18  182/242/18  185/243/18
usemtl brushes/__TB_empty
f  183/244/6  184/245/6  186/246/6  185/247/6

