mtllib test2.mtl
# vertices
v -352 16 -528
v -352 16 480
v -352 304 480
v -352 304 -528
v -320 304 480
v -320 16 480
v -320 16 -528
v -320 304 -528
v 512 16 -560
v 512 16 464
v 512 304 464
v 512 304 -560
v 544 304 464
v 544 16 464
v 544 16 -560
v 544 304 -560
v -352 0 -560
v -352 0 -528
v -352 304 -528
v -352 304 -560
v 544 304 -528
v 544 0 -528
v 544 0 -560
v 544 304 -560
v -552 16 680
v -552 16 800
v -552 448 800
v -552 448 680
v 736 448 800
v 736 16 800
v 736 16 680
v 736 448 680
v -896 208 -768
v -896 208 -288
v -896 272 -288
v -896 272 -768
v -608 272 -288
v -608 208 -288
v -608 208 -768
v -608 272 -768
v -1456 -16 -864
v -1456 -16 880
v -1456 16 880
v -1456 16 -864
v 1056 16 880
v 1056 -16 880
v 1056 -16 -864
v 1056 16 -864
v -1456 16 -544
v -1456 16 -304
v -1456 64 -304
v -1456 64 -544
v -1120 16 -288
v -1216 64 -304
v -992 16 -288
v -992 16 -400
v -1200 16 -544
v -1216 64 -544
v -1792 16 -544
v -1792 16 -304
v -1792 64 -304
v -1792 64 -544
v -1456 64 -304
v -1456 16 -304
v -1456 16 -544
v -1456 64 -544
v -1792 16 -304
v -1792 16 32
v -1792 64 32
v -1792 64 -304
v -1568 64 32
v -1568 16 32
v -1568 16 -304
v -1568 64 -304
v -1568 16 -304
v -1568 16 32
v -1568 96 32
v -1568 96 -304
v -1552 96 32
v -1552 16 32
v -1552 16 -304
v -1552 96 -304
v -1552 16 -304
v -1552 16 -288
v -1552 96 -288
v -1552 96 -304
v -1056 96 -288
v -1056 16 -288
v -1056 16 -304
v -1056 96 -304
v -896 16 -768
v -896 16 -720
v -896 224 -720
v -896 224 -768
v -608 224 -720
v -608 16 -720
v -608 16 -768
v -608 224 -768
v -896 16 -720
v -896 16 -480
v -896 224 -480
v -896 224 -720
v -880 224 -480
v -880 16 -480
v -880 16 -720
v -880 224 -720
v -624 16 -720
v -624 16 -480
v -624 224 -480
v -624 224 -720
v -608 224 -480
v -608 16 -480
v -608 16 -720
v -608 224 -720
v 432 16 -400
v 432 16 208
v 432 208 208
v 432 208 -400
v 480 208 208
v 480 16 208
v 480 16 -400
v 480 208 -400
v -104 16 176
v -104 16 384
v -104 216 384
v -104 216 176
v 248 216 384
v 248 16 384
v 248 16 176
v 248 216 176
v -144 82.61011441567553 -116.66737769936663
v -144 106.22626657837827 17.26647671028877
v -144 125.92242163862244 13.793513156950151
v -144 102.30626947591668 -120.14034125270962
v -140 125.92242163862244 13.793513156950151
v -140 106.22626657837827 17.26647671028877
v -140 82.61011441567553 -116.66737769936663
v -140 102.30626947591668 -120.14034125270962
v -144 49.972254129734665 -120.78710838321058
v -144 38.11907311605319 14.69537055726505
v -144 58.04296707789035 16.438485412218142
v -144 69.89614809157152 -119.04399352825774
v -140 58.04296707789035 16.438485412218142
v -140 38.11907311605319 14.69537055726505
v -140 69.89614809157152 -119.04399352825774
v -140 49.972254129734665 -120.78710838321058
v -320 288 -256
v -320 288 144
v -320 304 144
v -320 304 -256
v -144 304 144
v -144 288 144
v -144 288 -256
v -144 304 -256
v -160 16 -256
v -160 16 -112
v -160 288 -112
v -160 288 -256
v -144 288 -112
v -144 16 -112
v -144 16 -256
v -144 288 -256
v -320 16 -304
v -320 16 -256
v -320 304 -256
v -320 304 -304
v -144 304 -256
v -144 16 -256
v -144 16 -304
v -144 304 -304
v -160 16 -0
v -160 16 144
v -160 288 144
v -160 288 -0
v -144 288 144
v -144 16 144
v -144 16 -0
v -144 288 -0
v -160 160 -112
v -160 160 -0
v -160 288 -0
v -160 288 -112
v -144 288 -0
v -144 160 -0
v -144 160 -112
v -144 288 -112
v -320 16 144
v -320 16 192
v -320 304 192
v -320 304 144
v -144 304 192
v -144 16 192
v -144 16 144
v -144 304 144

# texture coordinates
vt 11 0.33333334
vt -10 0.33333334
vt -10 6.3333335
vt 11 6.3333335
vt -6.6666665 6.3333335
vt -7.3333335 6.3333335
vt -7.3333335 0.33333334
vt -6.6666665 0.33333334
vt -6.6666665 -10
vt -7.3333335 -10
vt -7.3333335 11
vt -6.6666665 11
vt 11.666667 0.33333334
vt -9.666667 0.33333334
vt -9.666667 6.3333335
vt 11.666667 6.3333335
vt 11.333333 6.3333335
vt 10.666667 6.3333335
vt 10.666667 0.33333334
vt 11.333333 0.33333334
vt 11.333333 -9.666667
vt 10.666667 -9.666667
vt 10.666667 11.666667
vt 11.333333 11.666667
vt 11.666667 -0
vt 11 -0
vt -7.3333335 -0
vt 11.333333 -0
vt 11.333333 11
vt -7.3333335 11.666667
vt -14.166667 0.33333334
vt -16.666666 0.33333334
vt -16.666666 9.333333
vt -14.166667 9.333333
vt 15.333333 9.333333
vt -11.5 9.333333
vt -11.5 0.33333334
vt 15.333333 0.33333334
vt 15.333333 -16.666666
vt -11.5 -16.666666
vt -11.5 -14.166667
vt 15.333333 -14.166667
vt 16 4.3333335
vt 6 4.3333335
vt 6 5.6666665
vt 16 5.6666665
vt -12.666667 5.6666665
vt -18.666666 5.6666665
vt -18.666666 4.3333335
vt -12.666667 4.3333335
vt -12.666667 6
vt -18.666666 6
vt -18.666666 16
vt -12.666667 16
vt 4.9632354 -0.09191176
vt -5.055147 -0.09191176
vt -5.055147 0.09191176
vt 4.9632354 0.09191176
vt 6.0661764 0.09191176
vt -8.363971 0.09191176
vt -8.363971 -0.09191176
vt 6.0661764 -0.09191176
vt 6.0661764 -5.055147
vt -8.363971 -5.055147
vt -8.363971 4.9632354
vt 6.0661764 4.9632354
vt 17 0.5
vt 9.5 0.5
vt 9.5 2
vt 17 2
vt -35 0.5
vt -45.5 2
vt -45.5 0.5
vt -38 2
vt -31 0.5
vt -31 12.5
vt -31 9
vt -35 9
vt -45.5 9.5
vt -45.5 17
vt -37.5 17
vt -38 17
vt -38 9.5
vt -37.5 0.5
vt -56 2
vt -56 0.5
vt -56 9.5
vt -56 17
vt -1 0.5
vt -1 2
vt -49 2
vt -49 0.5
vt -49 -1
vt -56 -1
vt -49 9.5
vt -1 3
vt 9.5 3
vt -48.5 3
vt -49 3
vt -48.5 0.5
vt -48.5 -1
vt -48.5 9.5
vt 9 0.5
vt 9 3
vt -33 3
vt -33 0.5
vt -33 9
vt -48.5 9
vt -33 9.5
vt 16 0.33333334
vt 15 0.33333334
vt 15 4.6666665
vt 16 4.6666665
vt -12.666667 4.6666665
vt -18.666666 4.6666665
vt -18.666666 0.33333334
vt -12.666667 0.33333334
vt -12.666667 15
vt -18.666666 15
vt 10 0.33333334
vt 10 4.6666665
vt -18.333334 4.6666665
vt -18.333334 0.33333334
vt -18.333334 10
vt -18.666666 10
vt -18.333334 15
vt -13 4.6666665
vt -13 0.33333334
vt -12.666667 10
vt -13 10
vt -13 15
vt 2.6041665 0.20833333
vt -1.3541666 0.20833333
vt -1.3541666 2.7083333
vt 2.6041665 2.7083333
vt 3.1249998 2.7083333
vt 2.8125 2.7083333
vt 2.8125 0.20833333
vt 3.1249998 0.20833333
vt 3.1249998 -2.7083333
vt 2.8125 -2.7083333
vt 2.8125 5.208333
vt 3.1249998 5.208333
vt -0.6875 0.0625
vt -1.5 0.0625
vt -1.5 0.84375
vt -0.6875 0.84375
vt 0.96875 0.84375
vt -0.40625 0.84375
vt -0.40625 0.0625
vt 0.96875 0.0625
vt 0.96875 -1.5
vt -0.40625 -1.5
vt -0.40625 -0.6875
vt 0.96875 -0.6875
vt 3.647504 2.56272
vt -0.6024958 2.5627189
vt -0.602496 3.1877189
vt 3.647504 3.18772
vt -4.375 3.9350758
vt -4.5 3.9350758
vt -4.5 3.3195708
vt -4.375 3.3195708
vt -4.375 -0.5395774
vt -4.5 -0.5395774
vt -4.5 3.6458557
vt -4.375 3.6458557
vt -4.375 3.7543857
vt -4.5 3.7543857
vt -4.5 -0.4310473
vt -4.375 -0.4310473
vt -4.375 2.581566
vt -4.5 2.581566
vt -4.5 3.1970708
vt -4.375 3.1970708
vt 3.5822697 3.9333584
vt -0.66773033 3.9333591
vt -0.66773045 3.3083591
vt 3.5822697 3.3083584
vt 3.8068802 1.5602231
vt -0.4431197 1.5602208
vt -0.44312003 2.1852207
vt 3.80688 2.185223
vt -4.375 1.8138428
vt -4.5 1.8138428
vt -4.5 1.191221
vt -4.375 1.191221
vt -4.375 3.7201247
vt -4.5 3.7201247
vt -4.5 -0.5137027
vt -4.375 -0.5137027
vt -4.375 -0.45923033
vt -4.5 -0.45923033
vt -4.5 3.7745972
vt -4.375 3.7745972
vt -4.375 1.561633
vt -4.5 1.561633
vt -4.5 2.1842546
vt -4.375 2.1842546
vt -0.45943773 1.8114733
vt -0.4594375 1.1864733
vt 3.7905626 1.186475
vt 3.7905624 1.811475
vt 6 -5.3333335
vt 6 3
vt 6.3333335 3
vt 6.3333335 -5.3333335
vt 6.3333335 6.6666665
vt 6 6.6666665
vt -3 3
vt -3 6.6666665
vt 5.3333335 6.6666665
vt 5.3333335 3
vt 5.3333335 0.33333334
vt 2.3333333 0.33333334
vt 2.3333333 6
vt 5.3333335 6
vt -3 6
vt -3.3333333 6
vt -3.3333333 0.33333334
vt -3 0.33333334
vt -3 2.3333333
vt -3.3333333 2.3333333
vt -3.3333333 5.3333335
vt -3 5.3333335
vt 6.3333335 0.33333334
vt 5.3333335 6.3333335
vt 6.3333335 6.3333335
vt -3 6.3333335
vt -6.6666665 5.3333335
vt -19.666666 7.666667
vt -19.666666 4.0000005
vt -18.666666 4.0000005
vt -18.666666 7.666667
vt 0 0.33333334
vt 0 6
vt -3 -3
vt -3.3333333 -3
vt -3.3333333 -0
vt -3 -0
vt 2.3333333 3.3333333
vt 0 3.3333333
vt -3.3333333 3.3333333
vt -3 3.3333333
vt -4 0.33333334
vt -4 6.3333335
vt -3 -4
vt -6.6666665 -4
vt -6.6666665 -3
vt -4 6.6666665
vt -4 3

# normals
vn -1 0 -0
vn -0 0 1
vn 0 -1 0
vn 0 1 -0
vn 0 0 -1
vn 1 0 -0
vn -0.04756514941544941 0 0.9988681377244376
vn 0 0.31622776601683794 0.9486832980505139
vn 0.20952908873087348 0.9778024140774095 -0
vn 0.5592327894010801 0.18641092980036003 -0.8077806958015601
vn 0 0.17364817766693086 0.9848077530122079
vn 0 -0.9848077530122078 0.1736481776669317
vn 0 0.9848077530122038 -0.17364817766695398
vn 0 -0.17364817766691928 -0.98480775301221
vn -0 -0.08715574274765693 0.9961946980917457
vn 0 0.9961946980917458 0.08715574274765668
vn 0 -0.9961946980917458 -0.08715574274765668
vn 0 0.08715574274765675 -0.9961946980917457

o entity0_brush0
usemtl brushes/bricks
f  1/1/1  2/2/1  3/3/1  4/4/1
usemtl brushes/bricks
f  5/5/2  3/6/2  2/7/2  6/8/2
usemtl brushes/bricks
f  6/9/3  2/10/3  1/11/3  7/12/3
usemtl brushes/bricks
f  8/12/4  4/11/4  3/10/4  5/9/4
usemtl brushes/bricks
f  7/8/5  1/7/5  4/6/5  8/5/5
usemtl brushes/bricks
f  8/4/6  5/3/6  6/2/6  7/1/6

o entity0_brush1
usemtl brushes/bricks
f  9/13/1  10/14/1  11/15/1  12/16/1
usemtl brushes/bricks
f  13/17/2  11/18/2  10/19/2  14/20/2
usemtl brushes/bricks
f  14/21/3  10/22/3  9/23/3  15/24/3
usemtl brushes/bricks
f  16/24/4  12/23/4  11/22/4  13/21/4
usemtl brushes/bricks
f  15/20/5  9/19/5  12/18/5  16/17/5
usemtl brushes/bricks
f  16/16/6  13/15/6  14/14/6  15/13/6

o entity0_brush2
usemtl brushes/bricks
f  17/25/1  18/26/1  19/4/1  20/16/1
usemtl brushes/bricks
f  21/17/2  19/6/2  18/27/2  22/28/2
usemtl brushes/bricks
f  22/29/3  18/11/3  17/30/3  23/24/3
usemtl brushes/bricks
f  24/24/4  20/30/4  19/11/4  21/29/4
usemtl brushes/bricks
f  23/28/5  17/27/5  20/6/5  24/17/5
usemtl brushes/bricks
f  24/16/6  21/4/6  22/26/6  23/25/6

o entity0_brush3
usemtl brushes/bricks
f  25/31/1  26/32/1  27/33/1  28/34/1
usemtl brushes/bricks
f  29/35/2  27/36/2  26/37/2  30/38/2
usemtl brushes/bricks
f  30/39/3  26/40/3  25/41/3  31/42/3
usemtl brushes/bricks
f  32/42/4  28/41/4  27/40/4  29/39/4
usemtl brushes/bricks
f  31/38/5  25/37/5  28/36/5  32/35/5
usemtl brushes/bricks
f  32/34/6  29/33/6  30/32/6  31/31/6

o entity0_brush4
usemtl brushes/bricks
f  33/43/1  34/44/1  35/45/1  36/46/1
usemtl brushes/bricks
f  37/47/2  35/48/2  34/49/2  38/50/2
usemtl brushes/bricks
f  38/51/3  34/52/3  33/53/3  39/54/3
usemtl brushes/bricks
f  40/54/4  36/53/4  35/52/4  37/51/4
usemtl brushes/bricks
f  39/50/5  33/49/5  36/48/5  40/47/5
usemtl brushes/bricks
f  40/46/6  37/45/6  38/44/6  39/43/6

o entity0_brush5
usemtl brushes/ground_pbr
f  41/55/1  42/56/1  43/57/1  44/58/1
usemtl brushes/ground_pbr
f  45/59/2  43/60/2  42/61/2  46/62/2
usemtl brushes/ground_pbr
f  46/63/3  42/64/3  41/65/3  47/66/3
usemtl brushes/ground_pbr
f  48/66/4  44/65/4  43/64/4  45/63/4
usemtl brushes/ground_pbr
f  47/62/5  41/61/5  44/60/5  48/59/5
usemtl brushes/ground_pbr
f  48/58/6  45/57/6  46/56/6  47/55/6

o entity0_brush6
usemtl brushes/__TB_empty
f  49/67/1  50/68/1  51/69/1  52/70/1
usemtl brushes/__TB_empty
f  53/71/7  51/72/7  50/73/7
usemtl brushes/__TB_empty
f  54/74/8  51/72/8  53/71/8  55/75/8
usemtl brushes/__TB_empty
f  56/76/3  55/77/3  53/78/3  50/79/3  49/80/3  57/81/3
usemtl brushes/__TB_empty
f  58/82/4  52/80/4  51/79/4  54/83/4
usemtl brushes/__TB_empty
f  57/84/5  49/73/5  52/72/5  58/74/5
usemtl brushes/__TB_empty
f  58/82/9  54/83/9  55/77/9  56/76/9
usemtl brushes/__TB_empty
f  57/84/10  58/74/10  56/75/10

o entity0_brush7
usemtl brushes/__TB_empty
f  59/67/1  60/68/1  61/69/1  62/70/1
usemtl brushes/__TB_empty
f  63/72/2  61/85/2  60/86/2  64/73/2
usemtl brushes/__TB_empty
f  64/79/3  60/87/3  59/88/3  65/80/3
usemtl brushes/__TB_empty
f  66/80/4  62/88/4  61/87/4  63/79/4
usemtl brushes/__TB_empty
f  65/73/5  59/86/5  62/85/5  66/72/5
usemtl brushes/__TB_empty
f  66/70/6  63/69/6  64/68/6  65/67/6

o entity0_brush8
usemtl brushes/__TB_empty
f  67/68/1  68/89/1  69/90/1  70/69/1
usemtl brushes/__TB_empty
f  71/91/2  69/85/2  68/86/2  72/92/2
usemtl brushes/__TB_empty
f  72/93/3  68/94/3  67/87/3  73/95/3
usemtl brushes/__TB_empty
f  74/95/4  70/87/4  69/94/4  71/93/4
usemtl brushes/__TB_empty
f  73/92/5  67/86/5  70/85/5  74/91/5
usemtl brushes/__TB_empty
f  74/69/6  71/90/6  72/89/6  73/68/6

o entity0_brush9
usemtl brushes/__TB_empty
f  75/68/1  76/89/1  77/96/1  78/97/1
usemtl brushes/__TB_empty
f  79/98/2  77/99/2  76/92/2  80/100/2
usemtl brushes/__TB_empty
f  80/101/3  76/93/3  75/95/3  81/102/3
usemtl brushes/__TB_empty
f  82/102/4  78/95/4  77/93/4  79/101/4
usemtl brushes/__TB_empty
f  81/100/5  75/92/5  78/99/5  82/98/5
usemtl brushes/__TB_empty
f  82/97/6  79/96/6  80/89/6  81/68/6

o entity0_brush10
usemtl brushes/__TB_empty
f  83/68/1  84/103/1  85/104/1  86/97/1
usemtl brushes/__TB_empty
f  87/105/2  85/98/2  84/100/2  88/106/2
usemtl brushes/__TB_empty
f  88/107/3  84/108/3  83/102/3  89/109/3
usemtl brushes/__TB_empty
f  90/109/4  86/102/4  85/108/4  87/107/4
usemtl brushes/__TB_empty
f  89/106/5  83/100/5  86/98/5  90/105/5
usemtl brushes/__TB_empty
f  90/97/6  87/104/6  88/103/6  89/68/6

o entity0_brush11
usemtl brushes/bricks
f  91/110/1  92/111/1  93/112/1  94/113/1
usemtl brushes/bricks
f  95/114/2  93/115/2  92/116/2  96/117/2
usemtl brushes/bricks
f  96/118/3  92/119/3  91/53/3  97/54/3
usemtl brushes/bricks
f  98/54/4  94/53/4  93/119/4  95/118/4
usemtl brushes/bricks
f  97/117/5  91/116/5  94/115/5  98/114/5
usemtl brushes/bricks
f  98/113/6  95/112/6  96/111/6  97/110/6

o entity0_brush12
usemtl brushes/bricks
f  99/111/1  100/120/1  101/121/1  102/112/1
usemtl brushes/bricks
f  103/122/2  101/115/2  100/116/2  104/123/2
usemtl brushes/bricks
f  104/124/3  100/125/3  99/119/3  105/126/3
usemtl brushes/bricks
f  106/126/4  102/119/4  101/125/4  103/124/4
usemtl brushes/bricks
f  105/123/5  99/116/5  102/115/5  106/122/5
usemtl brushes/bricks
f  106/112/6  103/121/6  104/120/6  105/111/6

o entity0_brush13
usemtl brushes/bricks
f  107/111/1  108/120/1  109/121/1  110/112/1
usemtl brushes/bricks
f  111/114/2  109/127/2  108/128/2  112/117/2
usemtl brushes/bricks
f  112/129/3  108/130/3  107/131/3  113/118/3
usemtl brushes/bricks
f  114/118/4  110/131/4  109/130/4  111/129/4
usemtl brushes/bricks
f  113/117/5  107/128/5  110/127/5  114/114/5
usemtl brushes/bricks
f  114/112/6  111/121/6  112/120/6  113/111/6

o entity0_brush14
usemtl brushes/brickPBR
f  115/132/1  116/133/1  117/134/1  118/135/1
usemtl brushes/brickPBR
f  119/136/2  117/137/2  116/138/2  120/139/2
usemtl brushes/brickPBR
f  120/140/3  116/141/3  115/142/3  121/143/3
usemtl brushes/brickPBR
f  122/143/4  118/142/4  117/141/4  119/140/4
usemtl brushes/brickPBR
f  121/139/5  115/138/5  118/137/5  122/136/5
usemtl brushes/brickPBR
f  122/135/6  119/134/6  120/133/6  121/132/6

o entity3_brush0
usemtl brushes/trigger
f  123/144/1  124/145/1  125/146/1  126/147/1
usemtl brushes/trigger
f  127/148/2  125/149/2  124/150/2  128/151/2
usemtl brushes/trigger
f  128/152/3  124/153/3  123/154/3  129/155/3
usemtl brushes/trigger
f  130/155/4  126/154/4  125/153/4  127/152/4
usemtl brushes/trigger
f  129/151/5  123/150/5  126/149/5  130/148/5
usemtl brushes/trigger
f  130/147/6  127/146/6  128/145/6  129/144/6

o entity8_brush0
usemtl brushes/__TB_empty
f  131/156/1  132/157/1  133/158/1  134/159/1
usemtl brushes/__TB_empty
f  135/160/11  133/161/11  132/162/11  136/163/11
usemtl brushes/__TB_empty
f  136/164/12  132/165/12  131/166/12  137/167/12
usemtl brushes/__TB_empty
f  138/168/13  134/169/13  133/170/13  135/171/13
usemtl brushes/__TB_empty
f  137/172/14  131/173/14  134/174/14  138/175/14
usemtl brushes/__TB_empty
f  138/176/6  135/177/6  136/178/6  137/179/6

o entity9_brush0
usemtl brushes/__TB_empty
f  139/180/1  140/181/1  141/182/1  142/183/1
usemtl brushes/__TB_empty
f  143/184/15  141/185/15  140/186/15  144/187/15
usemtl brushes/__TB_empty
f  145/188/16  142/189/16  141/190/16  143/191/16
usemtl brushes/__TB_empty
f  144/192/17  140/193/17  139/194/17  146/195/17
usemtl brushes/__TB_empty
f  146/196/18  139/197/18  142/198/18  145/199/18
usemtl brushes/__TB_empty
f  143/200/6  144/201/6  146/202/6  145/203/6

o entity15_brush0
usemtl brushes/bricks
f  147/204/1  148/205/1  149/206/1  150/207/1
usemtl brushes/bricks
f  151/206/2  149/208/2  148/209/2  152/205/2
usemtl brushes/bricks
f  152/210/3  148/211/3  147/212/3  153/213/3
usemtl brushes/bricks
f  154/213/4  150/212/4  149/211/4  151/210/4
usemtl brushes/bricks
f  153/205/5  147/209/5  150/208/5  154/206/5
usemtl brushes/bricks
f  154/207/6  151/206/6  152/205/6  153/204/6

o entity15_brush1
usemtl brushes/bricks
f  155/214/1  156/215/1  157/216/1  158/217/1
usemtl brushes/bricks
f  159/218/2  157/219/2  156/220/2  160/221/2
usemtl brushes/bricks
f  160/222/3  156/223/3  155/224/3  161/225/3
usemtl brushes/bricks
f  162/225/4  158/224/4  157/223/4  159/222/4
usemtl brushes/bricks
f  161/221/5  155/220/5  158/219/5  162/218/5
usemtl brushes/bricks
f  162/217/6  159/216/6  160/215/6  161/214/6

o entity15_brush2
usemtl brushes/bricks
f  163/226/1  164/214/1  165/227/1  166/228/1
usemtl brushes/bricks
f  167/229/2  165/5/2  164/8/2  168/221/2
usemtl brushes/bricks
f  168/225/3  164/230/3  163/5/3  169/229/3
usemtl brushes/bricks
f  170/231/4  166/232/4  165/233/4  167/234/4
usemtl brushes/bricks
f  169/221/5  163/8/5  166/5/5  170/229/5
usemtl brushes/bricks
f  170/228/6  167/227/6  168/214/6  169/226/6

o entity15_brush3
usemtl brushes/bricks
f  171/235/1  172/221/1  173/218/1  174/236/1
usemtl brushes/bricks
f  175/218/2  173/219/2  172/220/2  176/221/2
usemtl brushes/bricks
f  176/237/3  172/238/3  171/239/3  177/240/3
usemtl brushes/bricks
f  178/240/4  174/239/4  173/238/4  175/237/4
usemtl brushes/bricks
f  177/221/5  171/220/5  174/219/5  178/218/5
usemtl brushes/bricks
f  178/236/6  175/218/6  176/221/6  177/235/6

o entity15_brush4
usemtl brushes/bricks
f  179/241/1  180/242/1  181/236/1  182/216/1
usemtl brushes/bricks
f  183/218/2  181/219/2  180/243/2  184/244/2
usemtl brushes/bricks
f  184/240/3  180/239/3  179/223/3  185/222/3
usemtl brushes/bricks
f  186/222/4  182/223/4  181/239/4  183/240/4
usemtl brushes/bricks
f  185/244/5  179/243/5  182/219/5  186/218/5
usemtl brushes/bricks
f  186/216/6  183/236/6  184/242/6  185/241/6

o entity15_brush5
usemtl brushes/bricks
f  187/221/1  188/245/1  189/246/1  190/229/1
usemtl brushes/bricks
f  191/229/2  189/5/2  188/8/2  192/221/2
usemtl brushes/bricks
f  192/247/3  188/248/3  187/249/3  193/237/3
usemtl brushes/bricks
f  194/210/4  190/211/4  189/250/4  191/251/4
usemtl brushes/bricks
f  193/221/5  187/8/5  190/5/5  194/229/5
usemtl brushes/bricks
f  194/229/6  191/246/6  192/245/6  193/221/6

