# Blender 4.0.0
# www.blender.org
mtllib npc_base.mtl
o Cube
v 0.300000 1.990000 -0.300000
v 0.300000 0.010000 -0.300000
v 0.300000 1.990000 0.300000
v 0.300000 0.010000 0.300000
v -0.300000 1.990000 -0.300000
v -0.300000 0.010000 -0.300000
v -0.300000 1.990000 0.300000
v -0.300000 0.010000 0.300000
v -0.163471 1.504219 -0.212447
v -0.163471 1.831160 -0.212447
v -0.363705 1.303985 -0.539388
v -0.363705 2.031395 -0.539388
v 0.163471 1.504219 -0.212447
v 0.163471 1.831160 -0.212447
v 0.363705 1.303985 -0.539388
v 0.363705 2.031395 -0.539388
vn -0.0000 1.0000 -0.0000
vn -0.0000 -0.0000 1.0000
vn -1.0000 -0.0000 -0.0000
vn -0.0000 -1.0000 -0.0000
vn 1.0000 -0.0000 -0.0000
vn -0.0000 -0.0000 -1.0000
vn -0.8528 -0.0000 0.5223
vn 0.8528 -0.0000 0.5223
vn -0.0000 -0.8528 0.5223
vn -0.0000 0.8528 0.5223
vt 0.875000 0.500000
vt 0.625000 0.750000
vt 0.625000 0.500000
vt 0.375000 1.000000
vt 0.375000 0.750000
vt 0.625000 0.000000
vt 0.375000 0.250000
vt 0.375000 0.000000
vt 0.375000 0.500000
vt 0.125000 0.750000
vt 0.125000 0.500000
vt 0.625000 0.250000
vt 0.875000 0.750000
vt 0.625000 1.000000
s 0
usemtl Material
f 5/1/1 3/2/1 1/3/1
f 3/2/2 8/4/2 4/5/2
f 7/6/3 6/7/3 8/8/3
f 2/9/4 8/10/4 6/11/4
f 1/3/5 4/5/5 2/9/5
f 5/12/6 2/9/6 6/7/6
f 10/6/7 11/7/7 9/8/7
f 12/12/6 15/9/6 11/7/6
f 16/3/8 13/5/8 15/9/8
f 14/2/2 9/4/2 13/5/2
f 15/9/9 9/10/9 11/11/9
f 12/1/10 14/2/10 16/3/10
f 5/1/1 7/13/1 3/2/1
f 3/2/2 7/14/2 8/4/2
f 7/6/3 5/12/3 6/7/3
f 2/9/4 4/5/4 8/10/4
f 1/3/5 3/2/5 4/5/5
f 5/12/6 1/3/6 2/9/6
f 10/6/7 12/12/7 11/7/7
f 12/12/6 16/3/6 15/9/6
f 16/3/8 14/2/8 13/5/8
f 14/2/2 10/14/2 9/4/2
f 15/9/9 13/5/9 9/10/9
f 12/1/10 10/13/10 14/2/10
