# Blender 4.0.1
# www.blender.org
mtllib explosionSphere.mtl
o Sphere
v 0.291757 0.148475 -0.378246
v 0.350514 -0.255984 -0.231838
v 0.474665 0.142561 -0.131858
v 0.410373 0.272958 0.145492
v 0.440954 -0.178428 0.165292
v 0.227256 -0.429101 -0.085376
v 0.279700 0.171682 0.412254
v 0.242864 -0.204776 0.341723
v 0.020190 -0.429101 0.259186
v 0.142387 0.473409 0.209654
v -0.001447 0.272958 0.444697
v 0.000705 -0.095069 0.489707
v -0.195748 0.461853 0.171458
v -0.291173 0.158393 0.415804
v 0.136246 0.523016 -0.033055
v -0.473376 0.158393 0.168328
v -0.371461 -0.245704 0.246457
v -0.252553 -0.415936 0.026737
v -0.213444 0.461853 -0.123735
v -0.413266 0.272958 -0.122124
v -0.475318 -0.112476 -0.138981
v -0.296258 0.158393 -0.388742
v -0.110389 -0.245704 -0.412769
v 0.061833 0.461853 -0.231783
v -0.004590 0.158393 -0.485553
v -0.065349 -0.473439 -0.132635
vn 0.2957 0.5739 -0.7637
vn 0.2150 -0.7406 -0.6366
vn 0.3461 -0.2745 -0.8972
vn 0.6120 0.6582 -0.4385
vn 0.9524 -0.2548 -0.1672
vn 0.7184 0.6787 -0.1525
vn 0.8828 0.0801 0.4629
vn 0.1364 -0.9873 0.0819
vn 0.5874 0.6181 0.5224
vn 0.5365 -0.7798 0.3224
vn 0.3074 0.6229 0.7194
vn -0.4487 -0.2681 0.8525
vn -0.3264 0.6530 0.6835
vn -0.1451 0.1193 0.9822
vn -0.0562 0.9779 0.2013
vn -0.1731 -0.9737 0.1480
vn -0.6502 0.5899 0.4787
vn -0.3962 -0.8171 0.4187
vn -0.6793 0.7198 0.1433
vn -0.1749 0.9845 0.0105
vn -0.6378 -0.2501 -0.7285
vn -0.5877 0.6172 -0.5231
vn -0.5874 -0.6750 -0.4464
vn -0.8764 0.1609 -0.4538
vn -0.2385 0.6532 -0.7186
vn -0.1012 0.9609 -0.2578
vn 0.2393 -0.7208 -0.6506
vn 0.3224 -0.2489 -0.9133
vn 0.7978 -0.0994 -0.5947
vn 0.6180 0.6560 -0.4333
vn 0.7885 -0.6121 -0.0600
vn 0.9786 0.0747 0.1917
vn 0.6145 0.7758 0.1430
vn 0.6664 -0.1998 0.7183
vn 0.5249 -0.6995 0.4849
vn 0.4403 -0.2068 0.8737
vn 0.2466 -0.5407 0.8043
vn 0.1566 0.1208 0.9802
vn -0.0959 0.7856 0.6113
vn -0.2855 -0.5556 0.7809
vn -0.8022 -0.0881 0.5906
vn -0.9604 -0.2059 0.1876
vn -0.7373 0.6741 0.0442
vn -0.8101 -0.5861 0.0157
vn -0.9769 0.1633 -0.1378
vn -0.5853 -0.6727 -0.4528
vn -0.2699 0.6741 -0.6876
vn -0.3138 -0.0881 -0.9454
vt 0.690739 0.075320
vt 0.818760 0.071373
vt 0.793440 0.209582
vt 0.494396 0.183696
vt 0.536544 0.444703
vt 0.411867 0.344568
vt 0.655413 0.394641
vt 0.860576 0.130933
vt 0.848423 0.340255
vt 0.700128 0.507372
vt 0.006638 0.241273
vt 0.047846 0.443672
vt -0.000000 0.395389
vt 0.193253 0.493183
vt 0.196126 0.523391
vt 0.844794 0.695442
vt 0.886121 0.835013
vt 0.711537 0.856154
vt 0.083707 0.330594
vt 0.770462 1.000000
vt 0.258930 0.377753
vt 0.519502 0.912242
vt 0.394662 0.756274
vt 0.562102 0.678800
vt 0.188153 0.184269
vt 0.384925 0.267775
vt 0.394662 0.443171
vt 0.723494 0.664363
vt 0.380910 0.113144
vt 0.118230 0.079688
vt 0.247940 0.025786
vt 0.394662 0.088582
vt 0.576429 -0.000000
vt 0.180275 -0.000000
vt 0.632957 0.507372
vt 0.394662 0.047436
vt 0.000712 0.154123
vt 0.860576 0.351119
vt 0.532541 1.000000
vt 0.666616 0.972003
vt 0.438453 0.598937
vt 0.862809 0.580324
vt 0.710088 0.004718
s 0
f 25/1/1 24/2/1 1/3/1
f 23/4/2 6/5/2 26/6/2
f 23/4/3 1/3/3 2/7/3
f 1/3/4 15/8/4 3/9/4
f 3/9/5 5/10/5 2/7/5
f 15/11/6 4/12/6 3/13/6
f 4/12/7 7/14/7 5/15/7
f 26/16/8 6/17/8 9/18/8
f 4/12/9 10/19/9 7/14/9
f 5/20/10 9/18/10 6/17/10
f 7/14/11 10/19/11 11/21/11
f 12/22/12 14/23/12 17/24/12
f 11/21/13 13/25/13 14/26/13
f 11/21/14 14/26/14 12/27/14
f 10/19/15 15/11/15 13/25/15
f 26/16/16 9/18/16 18/28/16
f 14/26/17 13/25/17 16/29/17
f 17/24/18 18/28/18 9/18/18
f 16/29/19 19/30/19 20/31/19
f 13/25/20 15/11/20 19/30/20
f 21/32/21 22/33/21 23/4/21
f 20/31/22 19/30/22 22/34/22
f 21/35/23 26/16/23 18/28/23
f 20/31/24 22/34/24 21/36/24
f 22/33/25 24/2/25 25/1/25
f 19/30/26 15/11/26 24/37/26
f 23/4/27 2/7/27 6/5/27
f 23/4/28 25/1/28 1/3/28
f 1/3/29 3/9/29 2/7/29
f 1/3/30 24/2/30 15/8/30
f 2/7/31 5/10/31 6/5/31
f 3/9/32 4/38/32 5/10/32
f 15/11/33 10/19/33 4/12/33
f 5/20/34 7/39/34 8/40/34
f 5/20/35 8/40/35 9/18/35
f 8/40/36 7/39/36 12/22/36
f 8/40/37 12/22/37 9/18/37
f 7/14/38 11/21/38 12/27/38
f 11/21/39 10/19/39 13/25/39
f 12/22/40 17/24/40 9/18/40
f 17/24/41 14/23/41 16/41/41
f 17/24/42 16/41/42 21/35/42
f 16/29/43 13/25/43 19/30/43
f 17/24/44 21/35/44 18/28/44
f 16/29/45 20/31/45 21/36/45
f 21/35/46 23/42/46 26/16/46
f 22/33/47 19/43/47 24/2/47
f 23/4/48 22/33/48 25/1/48
