mtllib menu.mtl
# vertices
v -560 -16 -992
v -560 -16 64
v -560 16 64
v -560 16 -992
v 624 16 64
v 624 -16 64
v 624 -16 -992
v 624 16 -992

# texture coordinates
vt 5.6985292 -0.09191176
vt -0.36764705 -0.09191176
vt -0.36764705 0.09191176
vt 5.6985292 0.09191176
vt 3.5845587 0.09191176
vt -3.2169118 0.09191176
vt -3.2169118 -0.09191176
vt 3.5845587 -0.09191176
vt 3.5845587 -0.36764705
vt -3.2169118 -0.36764705
vt -3.2169118 5.6985292
vt 3.5845587 5.6985292

# normals
vn -1 0 0
vn 0 0 1
vn 0 -1 -0
vn -0 1 -0
vn 0 -0 -1
vn 1 0 0

o entity0_brush0
usemtl brushes/ground_pbr
f  1/1/1  2/2/1  3/3/1  4/4/1
usemtl brushes/ground_pbr
f  5/5/2  3/6/2  2/7/2  6/8/2
usemtl brushes/ground_pbr
f  6/9/3  2/10/3  1/11/3  7/12/3
usemtl brushes/ground_pbr
f  8/12/4  4/11/4  3/10/4  5/9/4
usemtl brushes/ground_pbr
f  7/8/5  1/7/5  4/6/5  8/5/5
usemtl brushes/ground_pbr
f  8/4/6  5/3/6  6/2/6  7/1/6

