mtllib recastTest.mtl
# vertices
v 592 -256 208
v 592 -256 336
v 592 -224 336
v 592 -224 208
v 720 -224 336
v 720 -256 336
v 720 -256 208
v 720 -224 208
v 192 -256 224
v 192 -256 272
v 192 -224 272
v 192 -224 224
v 592 -224 272
v 592 -256 272
v 592 -256 224
v 592 -224 224
v 192 -256 -32
v 192 -256 224
v 192 -224 224
v 192 -224 -32
v 272 -224 224
v 272 -256 224
v 272 -256 -32
v 272 -224 -32
v -608 -256 -32
v -608 -256 1008
v -608 -224 1008
v -608 -224 -32
v 192 -224 1008
v 192 -256 1008
v 192 -256 -32
v 192 -224 -32
v -176 -96 96
v -176 -96 288
v -176 -64 288
v -176 -64 96
v 16 -64 288
v 16 -96 288
v 16 -96 96
v 16 -64 96
v -176 -224 496
v -160 -64 288
v -176 -224 448
v -160 -96 288
v -64 -64 288
v -48 -224 496
v -48 -224 448
v -64 -96 288

# texture coordinates
vt -6 -7.5
vt -10 -7.5
vt -10 -6.5
vt -6 -6.5
vt 22 -6.5
vt 18 -6.5
vt 18 -7.5
vt 22 -7.5
vt 22 -10
vt 18 -10
vt 18 -6
vt 22 -6
vt -3.5 -4
vt -4.25 -4
vt -4.25 -3.5
vt -3.5 -3.5
vt 9.25 -3.5
vt 3 -3.5
vt 3 -4
vt 9.25 -4
vt 9.25 -4.25
vt 3 -4.25
vt 0.5 -4
vt 0.5 -3.5
vt 4.25 -3.5
vt 4.25 -4
vt 3 0.5
vt 4.25 0.5
vt -15.75 -4
vt -15.75 -3.5
vt -9.5 -3.5
vt -9.5 -4
vt 3 -15.75
vt -9.5 -15.75
vt -9.5 0.5
vt -0.75 -1.5
vt -3.75 -1.5
vt -3.75 -1
vt -0.75 -1
vt -0.25 -1
vt -3.25 -1
vt -3.25 -1.5
vt -0.25 -1.5
vt -0.25 -3.75
vt -3.25 -3.75
vt -3.25 -0.75
vt -0.25 -0.75
vt -7.75 -3.5
vt -4.5 -1
vt -7 -3.5
vt -4.5 -1.5
vt -1 -4.5
vt -2.5 -4.5
vt -2.75 -7.75
vt -0.75 -7.75
vt -2.75 -7
vt -0.75 -7
vt -1 -1.5
vt -2.5 -1.5
vt -2.5 -1
vt -1 -1

# normals
vn -1 0 -0
vn 0 0 1
vn 0 -1 -0
vn 0 1 -0
vn 0 0 -1
vn 1 0 -0
vn -0.9950371902099892 0.09950371902099892 -0
vn -0.9950371902099892 0 -0.09950371902099892
vn 0 0.7926239891046001 0.6097107608496923
vn 0 -0.7808688094430304 -0.6246950475544243
vn 0.9950371902099892 0.09950371902099892 -0
vn 0.9950371902099892 0 -0.09950371902099892

o entity0_brush0
usemtl __TB_empty
f  1/1/1  2/2/1  3/3/1  4/4/1
usemtl __TB_empty
f  5/5/2  3/6/2  2/7/2  6/8/2
usemtl __TB_empty
f  6/9/3  2/10/3  1/11/3  7/12/3
usemtl __TB_empty
f  8/12/4  4/11/4  3/10/4  5/9/4
usemtl __TB_empty
f  7/8/5  1/7/5  4/6/5  8/5/5
usemtl __TB_empty
f  8/4/6  5/3/6  6/2/6  7/1/6

o entity0_brush1
usemtl brushes/bricks
f  9/13/1  10/14/1  11/15/1  12/16/1
usemtl brushes/bricks
f  13/17/2  11/18/2  10/19/2  14/20/2
usemtl brushes/bricks
f  14/21/3  10/22/3  9/18/3  15/17/3
usemtl brushes/bricks
f  16/17/4  12/18/4  11/22/4  13/21/4
usemtl brushes/bricks
f  15/20/5  9/19/5  12/18/5  16/17/5
usemtl brushes/bricks
f  16/16/6  13/15/6  14/14/6  15/13/6

o entity0_brush2
usemtl brushes/bricks
f  17/23/1  18/13/1  19/16/1  20/24/1
usemtl brushes/bricks
f  21/25/2  19/18/2  18/19/2  22/26/2
usemtl brushes/bricks
f  22/25/3  18/18/3  17/27/3  23/28/3
usemtl brushes/bricks
f  24/28/4  20/27/4  19/18/4  21/25/4
usemtl brushes/bricks
f  23/26/5  17/19/5  20/18/5  24/25/5
usemtl brushes/bricks
f  24/24/6  21/16/6  22/13/6  23/23/6

o entity0_brush3
usemtl brushes/bricks
f  25/23/1  26/29/1  27/30/1  28/24/1
usemtl brushes/bricks
f  29/18/2  27/31/2  26/32/2  30/19/2
usemtl brushes/bricks
f  30/33/3  26/34/3  25/35/3  31/27/3
usemtl brushes/bricks
f  32/27/4  28/35/4  27/34/4  29/33/4
usemtl brushes/bricks
f  31/19/5  25/32/5  28/31/5  32/18/5
usemtl brushes/bricks
f  32/24/6  29/30/6  30/29/6  31/23/6

o entity0_brush4
usemtl brushes/bricks
f  33/36/1  34/37/1  35/38/1  36/39/1
usemtl brushes/bricks
f  37/40/2  35/41/2  34/42/2  38/43/2
usemtl brushes/bricks
f  38/44/3  34/45/3  33/46/3  39/47/3
usemtl brushes/bricks
f  40/47/4  36/46/4  35/45/4  37/44/4
usemtl brushes/bricks
f  39/43/5  33/42/5  36/41/5  40/40/5
usemtl brushes/bricks
f  40/39/6  37/38/6  38/37/6  39/36/6

o entity0_brush5
usemtl brushes/bricks
f  41/48/7  42/49/7  43/50/7
usemtl brushes/bricks
f  44/51/8  43/50/8  42/49/8
usemtl brushes/bricks
f  45/52/9  42/53/9  41/54/9  46/55/9
usemtl brushes/bricks
f  46/55/3  41/54/3  43/56/3  47/57/3
usemtl brushes/bricks
f  47/57/10  43/56/10  44/53/10  48/52/10
usemtl brushes/bricks
f  48/58/5  44/59/5  42/60/5  45/61/5
usemtl brushes/bricks
f  45/49/11  46/48/11  47/50/11
usemtl brushes/bricks
f  48/51/12  45/49/12  47/50/12

