# Blender v3.6.9 OBJ File: ''
# www.blender.org
mtllib cubemap.mtl
o Cube_Cube.001
v -0.500000 -0.500000 0.500000
v -0.500000 0.500000 0.500000
v -0.500000 -0.500000 -0.500000
v -0.500000 0.500000 -0.500000
v 0.500000 -0.500000 0.500000
v 0.500000 0.500000 0.500000
v 0.500000 -0.500000 -0.500000
v 0.500000 0.500000 -0.500000
v -0.484100 -0.484100 0.484100
v -0.484100 0.484100 0.484100
v -0.484100 -0.484100 -0.484100
v -0.484100 0.484100 -0.484100
v 0.484100 -0.484100 0.484100
v 0.484100 0.484100 0.484100
v 0.484100 -0.484100 -0.484100
v 0.484100 0.484100 -0.484100
vt 0.000000 0.000000
vt 0.000000 0.000000
vt 0.000000 0.000000
vt 0.000000 0.000000
vt 0.000000 0.000000
vt 0.000000 0.000000
vt 0.000000 0.000000
vt 0.000000 0.000000
vt 0.000000 0.000000
vt 0.000000 0.000000
vt 0.000000 0.000000
vt 0.000000 0.000000
vt 0.000000 0.000000
vt 0.000000 0.000000
vt 0.000000 0.000000
vt 0.000000 0.000000
vn 0.0000 0.7071 -0.7071
vn 0.0000 -0.7071 0.7071
vn -0.7071 0.0000 -0.7071
vn 0.7071 -0.7071 0.0000
vn 0.0000 -0.7071 -0.7071
vn -0.7071 -0.7071 0.0000
vn 0.7071 0.0000 -0.7071
vn -0.7071 0.0000 0.7071
vn 0.0000 0.7071 0.7071
vn -0.7071 0.7071 0.0000
vn 0.7071 0.7071 0.0000
usemtl None
s off
f 3/1/1 15/2/1 7/3/1
f 2/4/2 14/5/2 6/6/2
f 2/4/3 9/7/3 1/8/3
f 6/6/4 16/9/4 8/10/4
f 8/10/5 12/11/5 4/12/5
f 4/12/6 10/13/6 2/4/6
f 5/14/7 14/5/7 6/6/7
f 7/3/3 16/9/3 8/10/3
f 3/1/8 12/11/8 4/12/8
f 5/14/9 9/7/9 1/8/9
f 1/8/10 11/15/10 3/1/10
f 7/3/11 13/16/11 5/14/11
f 3/1/1 11/15/1 15/2/1
f 2/4/2 10/13/2 14/5/2
f 2/4/3 10/13/3 9/7/3
f 6/6/4 14/5/4 16/9/4
f 8/10/5 16/9/5 12/11/5
f 4/12/6 12/11/6 10/13/6
f 5/14/7 13/16/7 14/5/7
f 7/3/3 15/2/3 16/9/3
f 3/1/8 11/15/8 12/11/8
f 5/14/9 13/16/9 9/7/9
f 1/8/10 9/7/10 11/15/10
f 7/3/11 15/2/11 13/16/11
